<svg width="512" height="512" viewBox="0 0 512 512" fill="none" xmlns="http://www.w3.org/2000/svg">
<path d="M256 60.9524C256 60.9524 207.238 60.9524 170.667 109.714C134.095 158.476 128 170.667 103.619 182.857C79.2381 195.048 60.9524 201.143 60.9524 262.095C60.9524 323.048 121.905 304.762 140.19 359.619C158.476 414.476 188.952 451.048 256 451.048C323.048 451.048 310.857 408.381 353.524 396.19C396.19 384 451.048 359.619 451.048 316.952C451.048 274.286 420.571 256 432.762 225.524C444.952 195.048 451.048 182.857 451.048 140.19C451.048 119.814 438.382 104.119 419.578 97.3166C409.923 93.824 399.835 92.9341 389.644 93.1292C379.922 93.3181 371.224 97.7128 361.637 98.8282C339.974 101.352 330.033 83.9802 313.356 74.1791C296.064 64.0183 275.803 60.9524 256 60.9524Z" fill="#E1E9FF"/>
<path d="M256.585 419.986C210.389 419.986 186.843 400.853 169.691 349.397C157.507 312.856 130.859 298.033 113.225 288.219C95.0369 278.101 92.0198 276.011 92.0198 261.51C92.0198 222.293 96.7558 219.959 114.383 211.243L117.833 209.53C144.878 196.011 156.014 180.931 180.425 147.883C184.862 141.879 189.861 135.107 195.633 127.415C222.312 91.8369 256.25 90.8434 256.585 90.8434C274.45 90.8434 288.158 93.7935 298.496 99.8704C301.501 101.638 304.896 104.454 308.486 107.441C318.811 116.017 334.415 128.975 358.053 128.975C360.582 128.975 363.173 128.823 365.751 128.524C372.328 127.756 378.069 126.159 382.689 124.873C385.755 124.02 389.23 123.051 390.814 123.02L392.838 123.002C399.896 123.002 405.285 123.764 409.801 125.397C417.335 128.122 421.157 132.901 421.157 139.611C421.157 173.617 417.402 182.942 407.363 207.872L405.053 213.626C393.698 242.011 403.998 264.942 411.514 281.685C416.689 293.211 421.163 303.165 421.163 316.373C421.163 333.617 391.558 353.219 345.74 366.305C318.958 373.955 305.871 390.059 296.32 401.816C286.171 414.293 281.539 419.986 256.585 419.986Z" fill="#D7E0F4"/>
<path d="M256.585 389.51C227.389 389.51 212.882 382.598 198.601 339.761C182.674 291.986 147.133 272.213 128.036 261.589C126.464 260.718 124.66 260.193 123.27 259.011C121.728 257.701 121.661 255.701 121.947 253.83C122.362 251.142 122.764 248.509 122.88 245.784C122.977 243.59 123.782 241.591 125.409 240.091C127.835 237.854 131.176 236.958 134.046 235.465C136.058 234.417 138.051 233.338 140.02 232.216C143.707 230.107 147.316 227.858 150.808 225.438C157.342 220.916 163.444 215.802 169.088 210.219C174.952 204.416 180.334 198.144 185.484 191.707C191.518 184.161 197.26 176.384 203.002 168.613C203.648 167.741 204.288 166.869 204.928 166.004C209.426 159.915 214.339 153.259 220.008 145.707C235.861 124.568 254.482 121.673 257.554 121.326C269.019 121.417 277.821 123.081 283.044 126.147C284.099 126.805 287.049 129.262 289.006 130.883C301.032 140.873 323.407 159.451 358.046 159.451C361.752 159.451 365.531 159.232 369.274 158.793L369.743 158.738C380.69 157.446 389.48 167.924 386.011 178.389C384.317 183.491 382.062 189.093 379.087 196.48L376.765 202.264C360.594 242.694 375.625 276.175 383.701 294.162C383.738 294.248 383.774 294.327 383.811 294.412C388.718 305.347 384.055 318.117 373.339 323.486C364.843 327.753 353.097 332.507 337.359 337.006C301.348 347.294 283.392 369.396 272.603 382.671C269.135 386.938 263.991 389.413 258.493 389.504C257.896 389.504 257.256 389.51 256.585 389.51Z" fill="#CED9ED"/>
<path d="M374.857 410.496C378.224 410.496 380.952 407.767 380.952 404.401C380.952 401.034 378.224 398.306 374.857 398.306C371.491 398.306 368.762 401.034 368.762 404.401C368.762 407.767 371.491 410.496 374.857 410.496Z" fill="#77D3F7"/>
<path d="M85.3333 356.218C88.6996 356.218 91.4285 353.489 91.4285 350.123C91.4285 346.756 88.6996 344.027 85.3333 344.027C81.967 344.027 79.238 346.756 79.238 350.123C79.238 353.489 81.967 356.218 85.3333 356.218Z" fill="#77D3F7"/>
<path d="M451.048 329.143C454.414 329.143 457.143 326.414 457.143 323.048C457.143 319.681 454.414 316.952 451.048 316.952C447.681 316.952 444.952 319.681 444.952 323.048C444.952 326.414 447.681 329.143 451.048 329.143Z" fill="#77D3F7"/>
<path d="M109.714 106.563C113.081 106.563 115.81 103.834 115.81 100.468C115.81 97.1015 113.081 94.3726 109.714 94.3726C106.348 94.3726 103.619 97.1015 103.619 100.468C103.619 103.834 106.348 106.563 109.714 106.563Z" fill="#77D3F7"/>
<path d="M419.432 152.954C419.547 153.478 420.023 153.856 420.571 153.856C421.12 153.856 421.589 153.478 421.711 152.954C421.736 152.881 423.96 144.372 430.056 144.372C430.72 144.372 431.238 143.848 431.238 143.189C431.238 142.531 430.714 142.007 430.056 142.007C423.966 142.007 421.736 133.498 421.711 133.425C421.449 132.358 419.694 132.358 419.438 133.425C419.413 133.498 417.189 142.007 411.093 142.007C410.429 142.007 409.911 142.531 409.911 143.189C409.911 143.848 410.435 144.372 411.093 144.372C417.182 144.372 419.407 152.881 419.432 152.954ZM312.722 53.4126C306.633 53.4126 304.402 44.9037 304.378 44.8305C304.116 43.7639 302.36 43.7639 302.104 44.8305C302.08 44.9037 299.855 53.4126 293.76 53.4126C293.096 53.4126 292.571 53.9368 292.571 54.5951C292.571 55.2534 293.096 55.7776 293.754 55.7776C299.843 55.7776 302.074 64.2865 302.098 64.3597C302.214 64.8839 302.69 65.2618 303.238 65.2618C303.787 65.2618 304.256 64.8839 304.378 64.3597C304.402 64.2865 306.627 55.7776 312.722 55.7776C313.387 55.7776 313.905 55.2534 313.905 54.5951C313.905 53.9368 313.381 53.4126 312.722 53.4126ZM171.806 436.383C171.831 436.309 174.056 427.8 180.151 427.8C180.815 427.8 181.333 427.276 181.333 426.618C181.333 425.96 180.809 425.435 180.151 425.435C174.062 425.435 171.831 416.927 171.806 416.853C171.544 415.787 169.789 415.787 169.533 416.853C169.509 416.927 167.284 425.435 161.189 425.435C160.524 425.435 160.006 425.96 160.006 426.618C160.006 427.276 160.53 427.8 161.189 427.8C167.278 427.8 169.509 436.309 169.533 436.383C169.649 436.907 170.124 437.285 170.673 437.285C171.221 437.285 171.685 436.907 171.806 436.383ZM90.2461 151.144C84.1569 151.144 81.9261 142.635 81.9017 142.562C81.6396 141.495 79.8842 141.495 79.6282 142.562C79.6038 142.635 77.379 151.144 71.2838 151.144C70.6194 151.144 70.1013 151.668 70.1013 152.326C70.1013 152.984 70.6255 153.509 71.2838 153.509C77.3729 153.509 79.6038 162.018 79.6282 162.091C79.744 162.615 80.2194 162.993 80.768 162.993C81.3166 162.993 81.7859 162.615 81.9078 162.091C81.9322 162.018 84.1569 153.509 90.2522 153.509C90.9166 153.509 91.4347 152.984 91.4347 152.326C91.4347 151.668 90.9044 151.144 90.2461 151.144Z" fill="#C6AEFF"/>
<path d="M256 91.4286C222.781 91.4286 190.781 101.303 163.413 119.954C161.95 120.93 160.122 121.234 158.415 120.747C157.318 120.442 156.099 120.137 154.758 119.71C148.602 117.882 135.68 114.103 133.425 118.552C130.804 123.855 128.792 135.863 128.061 150.674C128 151.954 127.512 153.173 126.72 154.149C111.543 173.471 101.059 195.291 95.6951 218.636C92.8304 230.705 91.4285 243.261 91.4285 256C91.4285 289.829 101.608 322.316 120.929 349.989C121.6 350.964 121.966 352.061 122.027 353.219C122.697 371.017 124.648 385.158 127.695 394.24C129.097 398.568 146.529 397.47 155.855 396.861C160.061 396.617 164.206 396.312 168.107 396.251C168.168 396.251 168.168 396.251 168.228 396.251C169.326 396.251 170.423 396.556 171.398 397.105C196.876 412.465 226.133 420.571 256 420.571C294.948 420.571 330.788 406.979 359.009 384.183C396.556 354.072 420.571 307.81 420.571 256C420.571 165.242 346.758 91.4286 256 91.4286ZM298.667 134.095C308.724 134.095 316.952 142.324 316.952 152.381H304.762C304.762 149.029 302.019 146.286 298.667 146.286C295.314 146.286 292.571 149.029 292.571 152.381H280.381C280.381 142.324 288.609 134.095 298.667 134.095ZM292.571 323.048C285.867 323.048 280.381 328.533 280.381 335.238H268.19C268.19 321.768 279.101 310.857 292.571 310.857C306.042 310.857 316.952 321.768 316.952 335.238C316.952 348.709 306.042 359.619 292.571 359.619V347.429C299.276 347.429 304.762 341.943 304.762 335.238C304.762 328.533 299.276 323.048 292.571 323.048ZM195.048 359.619V371.81C184.99 371.81 176.762 363.581 176.762 353.524C176.762 343.467 184.99 335.238 195.048 335.238V347.429C191.695 347.429 188.952 350.171 188.952 353.524C188.952 356.876 191.695 359.619 195.048 359.619ZM286.476 213.333C299.947 213.333 310.857 224.244 310.857 237.714C310.857 251.185 299.947 262.095 286.476 262.095C273.006 262.095 262.095 251.185 262.095 237.714C262.095 224.244 273.006 213.333 286.476 213.333ZM188.952 140.19C205.775 140.19 219.428 153.844 219.428 170.667H207.238C207.238 160.61 199.009 152.381 188.952 152.381C178.895 152.381 170.667 160.61 170.667 170.667C170.667 180.724 178.895 188.952 188.952 188.952V201.143C172.129 201.143 158.476 187.49 158.476 170.667C158.476 153.844 172.129 140.19 188.952 140.19ZM170.667 243.81C180.724 243.81 188.952 252.038 188.952 262.095H176.762C176.762 258.743 174.019 256 170.667 256C167.314 256 164.571 258.743 164.571 262.095C164.571 265.448 167.314 268.19 170.667 268.19V280.381C160.609 280.381 152.381 272.152 152.381 262.095C152.381 252.038 160.609 243.81 170.667 243.81ZM353.524 280.381V268.19C370.347 268.19 384 254.537 384 237.714C384 220.891 370.347 207.238 353.524 207.238V195.048C377.051 195.048 396.19 214.187 396.19 237.714C396.19 261.242 377.051 280.381 353.524 280.381Z" fill="#7E868C"/>
<path d="M286.476 249.905C293.209 249.905 298.667 244.447 298.667 237.714C298.667 230.982 293.209 225.524 286.476 225.524C279.744 225.524 274.286 230.982 274.286 237.714C274.286 244.447 279.744 249.905 286.476 249.905Z" fill="#A2ADB8"/>
<path d="M420.572 256C420.572 307.81 396.556 354.072 359.01 384.183C336.64 393.326 312.137 398.385 286.476 398.385C184.747 398.385 101.547 318.903 95.6953 218.636C101.059 195.291 111.543 173.471 126.72 154.149C127.512 153.173 128 151.954 128.061 150.674C128.792 135.863 130.804 123.855 133.425 118.552C135.68 114.103 148.602 117.882 154.758 119.71C156.099 120.137 157.318 120.442 158.415 120.747C160.122 121.234 161.951 120.93 163.413 119.954C190.781 101.303 222.781 91.4286 256 91.4286C346.758 91.4286 420.572 165.242 420.572 256Z" fill="#A2ADB8"/>
<path d="M366.68 199.747C376.166 191.312 370.889 169.891 354.894 151.901C338.898 133.912 318.24 126.167 308.754 134.602C299.267 143.037 304.544 164.459 320.54 182.448C336.536 200.437 357.193 208.182 366.68 199.747Z" fill="#CAD6E0"/>
<path d="M384 237.714C384 220.891 370.347 207.238 353.524 207.238V195.048C377.051 195.048 396.19 214.187 396.19 237.714C396.19 261.242 377.051 280.381 353.524 280.381V268.19C370.347 268.19 384 254.537 384 237.714ZM298.667 134.095C308.724 134.095 316.952 142.324 316.952 152.381H304.762C304.762 149.029 302.019 146.286 298.667 146.286C295.314 146.286 292.571 149.029 292.571 152.381H280.381C280.381 142.324 288.609 134.095 298.667 134.095ZM292.571 323.048C285.867 323.048 280.381 328.533 280.381 335.238H268.19C268.19 321.768 279.101 310.857 292.571 310.857C306.042 310.857 316.952 321.768 316.952 335.238C316.952 348.709 306.042 359.619 292.571 359.619V347.429C299.276 347.429 304.762 341.943 304.762 335.238C304.762 328.533 299.276 323.048 292.571 323.048ZM274.286 237.714C274.286 244.419 279.771 249.905 286.476 249.905C293.181 249.905 298.667 244.419 298.667 237.714C298.667 231.009 293.181 225.524 286.476 225.524C279.771 225.524 274.286 231.009 274.286 237.714ZM262.095 237.714C262.095 224.244 273.006 213.333 286.476 213.333C299.947 213.333 310.857 224.244 310.857 237.714C310.857 251.185 299.947 262.095 286.476 262.095C273.006 262.095 262.095 251.185 262.095 237.714ZM188.952 353.524C188.952 356.876 191.695 359.619 195.048 359.619V371.809C184.99 371.809 176.762 363.581 176.762 353.524C176.762 343.467 184.99 335.238 195.048 335.238V347.429C191.695 347.429 188.952 350.171 188.952 353.524ZM188.952 152.381C178.895 152.381 170.667 160.609 170.667 170.667C170.667 180.724 178.895 188.952 188.952 188.952V201.143C172.129 201.143 158.476 187.489 158.476 170.667C158.476 153.844 172.129 140.19 188.952 140.19C205.775 140.19 219.428 153.844 219.428 170.667H207.238C207.238 160.609 199.009 152.381 188.952 152.381ZM152.381 262.095C152.381 252.038 160.609 243.809 170.667 243.809C180.724 243.809 188.952 252.038 188.952 262.095H176.762C176.762 258.743 174.019 256 170.667 256C167.314 256 164.571 258.743 164.571 262.095C164.571 265.448 167.314 268.19 170.667 268.19V280.381C160.609 280.381 152.381 272.152 152.381 262.095Z" fill="#3E4354"/>
<path d="M128.061 150.674C128 151.954 127.512 153.173 126.72 154.149C103.619 183.467 91.4285 218.697 91.4285 256C91.4285 289.829 101.608 322.316 120.929 349.988C121.6 350.964 121.966 352.061 122.027 353.219C122.697 371.017 124.648 385.158 127.695 394.24C129.097 398.568 146.529 397.47 155.855 396.861C160.061 396.617 164.206 396.312 168.107 396.251C168.168 396.251 168.168 396.251 168.229 396.251C169.326 396.251 170.423 396.556 171.398 397.105C196.876 412.465 226.133 420.571 256 420.571C346.758 420.571 420.571 346.758 420.571 256C420.571 165.242 346.758 91.4285 256 91.4285C222.781 91.4285 190.781 101.303 163.413 119.954C161.95 120.929 160.122 121.234 158.415 120.747C157.318 120.442 156.099 120.137 154.758 119.71C148.602 117.882 135.68 114.103 133.425 118.552C130.804 123.855 128.792 135.863 128.061 150.674ZM115.992 148.114C116.541 138.118 118.187 121.905 122.514 113.067C129.28 99.5961 147.383 104.899 158.232 108.008C158.476 108.129 158.72 108.19 158.964 108.251C187.794 89.2342 221.318 79.238 256 79.238C353.463 79.238 432.762 158.537 432.762 256C432.762 353.463 353.463 432.762 256 432.762C224.549 432.762 193.707 424.35 166.644 408.503C163.413 408.625 160.061 408.808 156.648 409.051C138.849 410.149 120.503 411.368 116.114 398.08C112.03 385.828 110.446 368.518 109.897 355.474C89.8438 326.095 79.238 291.718 79.238 256C79.238 216.564 91.9161 179.322 115.992 148.114Z" fill="#3E4354"/>
</svg>
