<svg width="512" height="512" viewBox="0 0 512 512" fill="none" xmlns="http://www.w3.org/2000/svg">
<path d="M435.2 302.933C464 192 406.4 74.6666 300.8 28.8C273.067 17.0666 243.2 10.6666 215.467 9.59998C205.867 9.59998 200.533 20.2666 206.933 27.7333C254.933 77.8666 279.467 145.067 268.8 217.6C259.2 256 202.667 246.4 183.467 264.533C163.2 283.733 228.267 318.933 228.267 318.933C193.067 369.067 137.6 406.4 77.8666 419.2C68.2666 421.333 66.1333 433.067 74.6666 438.4C92.7999 451.2 113.067 460.8 134.4 468.267C262.4 509.867 400 435.2 435.2 302.933Z" fill="#FFE500"/>
<path opacity="0.15" d="M256 502.4C323.747 502.4 378.667 495.236 378.667 486.4C378.667 477.563 323.747 470.4 256 470.4C188.253 470.4 133.333 477.563 133.333 486.4C133.333 495.236 188.253 502.4 256 502.4Z" fill="#45413C"/>
<path d="M193.067 294.4C217.6 286.933 253.867 285.867 261.333 256C262.4 246.4 263.467 237.867 263.467 228.267C246.4 253.867 200.533 247.467 182.4 264.533C173.867 273.067 181.333 284.8 193.067 294.4Z" fill="#FFF48C"/>
<path d="M300.8 28.8C273.067 17.0666 243.2 10.6666 215.467 9.59998C205.867 9.59998 200.533 20.2666 206.933 27.7333C213.333 35.2 219.733 41.6 225.067 49.0666C325.333 59.7333 408.533 134.4 429.867 234.667C435.2 259.2 436.267 283.733 433.067 307.2C433.067 306.133 434.133 304 434.133 302.933C464 192 406.4 74.6666 300.8 28.8Z" fill="#FFF48C"/>
<path d="M74.6666 438.4C81.0666 442.667 88.5333 446.933 96 451.2C132.267 439.467 182.4 394.667 206.933 372.267C214.4 365.867 213.333 354.133 204.8 348.8C170.667 384 126.933 410.667 78.9333 420.267C69.3333 420.267 66.1333 433.067 74.6666 438.4Z" fill="#FFF48C"/>
<path d="M435.2 302.933C464 192 406.4 74.6666 300.8 28.8C273.067 17.0666 243.2 10.6666 215.467 9.59998C205.867 9.59998 200.533 20.2666 206.933 27.7333C254.933 77.8666 279.467 145.067 268.8 217.6C259.2 256 202.667 246.4 183.467 264.533C163.2 283.733 228.267 318.933 228.267 318.933C193.067 369.067 137.6 406.4 77.8666 419.2C68.2666 421.333 66.1333 433.067 74.6666 438.4C92.7999 451.2 113.067 460.8 134.4 468.267C262.4 509.867 400 435.2 435.2 302.933Z" stroke="#45413C" stroke-miterlimit="10" stroke-linecap="round" stroke-linejoin="round"/>
<path d="M228.267 318.933C248.533 330.667 264.533 333.867 268.8 314.667" stroke="#45413C" stroke-miterlimit="10" stroke-linecap="round" stroke-linejoin="round"/>
<path d="M334.692 254.376C336.706 248.217 333.345 241.591 327.186 239.577C321.027 237.563 314.401 240.924 312.387 247.083C310.373 253.242 313.734 259.868 319.893 261.882C326.052 263.896 332.678 260.536 334.692 254.376Z" fill="#45413C" stroke="#45413C" stroke-miterlimit="10"/>
<path d="M355.653 363.15C358.033 355.871 354.061 348.041 346.781 345.662C339.502 343.282 331.672 347.254 329.293 354.534C326.913 361.813 330.885 369.643 338.165 372.022C345.444 374.402 353.274 370.43 355.653 363.15Z" fill="#FFFACF"/>
<path d="M190.933 361.6C190.933 361.6 227.2 400 279.467 386.133" stroke="#45413C" stroke-miterlimit="10" stroke-linecap="round" stroke-linejoin="round"/>
<path d="M286.933 361.6C286.933 361.6 276.267 372.267 279.467 385.067C283.733 401.067 299.733 403.2 299.733 403.2" stroke="#45413C" stroke-miterlimit="10" stroke-linecap="round" stroke-linejoin="round"/>
</svg>
