<svg width="512" height="512" viewBox="0 0 512 512" fill="none" xmlns="http://www.w3.org/2000/svg">
<g clip-path="url(#clip0_40_113)">
<path d="M342.94 399.434L321.253 421.111C292.363 392.202 295.151 346.374 323 318.535C350.828 290.666 396.677 287.899 425.596 316.808L400.768 341.637L342.94 399.434Z" fill="#AEBCC4"/>
<path d="M165.344 165.338C193.182 137.469 237.97 136.819 265.839 164.672L370.354 269.182L269.233 370.344L165.677 266.848C137.95 239.075 137.515 193.166 165.344 165.338V165.338Z" fill="#78909C"/>
<path d="M501.657 85.106L384.172 202.591L309.395 127.834L426.889 10.3434L501.657 85.106Z" fill="#FFAB00"/>
<path d="M202.609 384.163L85.1153 501.657L10.3482 426.89L127.842 309.396L202.609 384.163Z" fill="#FFAB00"/>
<path d="M372.333 442.333C372.757 442.333 373.192 442.303 373.626 442.252C392.637 439.879 410.434 431.273 423.727 418.01C436.262 405.475 444.475 389.414 447.475 371.536C448.414 365.899 444.616 360.566 438.98 359.616C433.333 358.666 428.01 362.475 427.071 368.101C424.788 381.717 418.576 393.919 409.111 403.373C399.051 413.404 385.546 419.919 371.061 421.727C365.394 422.434 361.374 427.596 362.081 433.273C362.727 438.505 367.192 442.333 372.333 442.333Z" fill="#43525B"/>
<path d="M477.313 359.495C471.697 359.212 466.667 363.363 466.252 369.051C464.454 393.717 454.132 416.121 436.404 433.868C418.909 451.353 395.879 461.959 371.576 463.717C365.879 464.142 361.596 469.091 362.01 474.788C362.404 480.233 366.94 484.384 372.313 484.384C372.565 484.384 372.818 484.374 373.071 484.364C402.334 482.222 430.02 469.495 451.03 448.505C472.02 427.495 484.757 399.818 486.878 370.565C487.293 364.858 483.01 359.899 477.313 359.495Z" fill="#43525B"/>
<path d="M508.97 77.7931L434.201 3.03043C430.161 -1.00981 423.615 -1.00981 419.575 3.03043L302.081 120.52C300.141 122.46 299.051 125.091 299.051 127.834C299.051 130.576 300.142 133.207 302.081 135.147L332.161 165.217L306.576 190.783L273.151 157.354C257.929 142.141 237.707 133.763 216.222 133.763C194.323 133.763 173.657 142.379 158.031 158.026C126.131 189.929 126.273 242.02 158.364 274.161L190.798 306.586L165.212 332.141L135.151 302.08C131.111 298.04 124.566 298.04 120.525 302.08L3.03043 419.576C2.06954 420.536 1.30731 421.676 0.787326 422.931C0.267341 424.186 -0.000200859 425.531 1.1314e-07 426.889C1.1314e-07 429.627 1.09091 432.263 3.03043 434.202L77.7976 508.969C78.7576 509.93 79.8977 510.693 81.1526 511.213C82.4075 511.733 83.7527 512.001 85.1111 512C87.8587 512 90.4846 510.909 92.4241 508.969L209.92 391.475C211.859 389.535 212.949 386.905 212.95 384.162C212.95 381.414 211.859 378.788 209.92 376.849L179.849 346.768L205.435 321.202L261.92 377.667C263.861 379.603 266.491 380.69 269.233 380.688C271.879 380.688 274.525 379.677 276.546 377.657L290.97 363.233C290.779 365.182 290.576 367.132 290.515 369.111C289.828 391.556 298.142 412.626 313.94 428.425C315.96 430.445 318.606 431.455 321.253 431.455C323.9 431.455 326.546 430.445 328.566 428.425L432.909 324.121C433.87 323.161 434.632 322.021 435.152 320.766C435.672 319.511 435.94 318.166 435.94 316.808C435.94 314.06 434.849 311.434 432.909 309.495C417.757 294.344 397.576 286 376.091 286C373.293 286 370.504 286.142 367.738 286.424L377.666 276.495C381.707 272.455 381.707 265.904 377.666 261.868L321.212 205.409L346.788 179.843L376.858 209.904C378.878 211.924 381.525 212.934 384.171 212.934C386.818 212.934 389.464 211.924 391.485 209.904L508.969 92.419C510.909 90.4795 511.999 87.8491 512 85.106C512 82.3635 510.909 79.7326 508.97 77.7931H508.97ZM85.1106 487.03L24.9699 426.889L127.838 324.02L187.98 384.162L85.1111 487.03H85.1106ZM410.334 317.435L321.879 405.849C314.536 395.404 310.788 382.889 311.192 369.737C311.687 353.262 318.485 337.677 330.324 325.839C342.475 313.677 359.151 306.687 376.091 306.687C388.536 306.687 400.384 310.454 410.334 317.435ZM269.233 355.717L173 259.536C148.97 235.47 148.818 196.495 172.657 172.646C184.384 160.914 199.858 154.45 216.222 154.45C232.192 154.45 247.212 160.677 258.526 171.985L355.727 269.182L269.233 355.717ZM384.172 187.965L324.02 127.833L426.889 24.9699L487.031 85.1066L384.172 187.965Z" fill="#43525B"/>
<path d="M243.252 255.586L255.232 267.555L269.858 252.935L257.879 240.96L243.252 255.586Z" fill="#43525B"/>
<path d="M279.172 291.515L293.818 276.909L281.848 264.919L267.202 279.536L279.172 291.515Z" fill="#43525B"/>
<path d="M233.919 216.98L219.293 231.606L231.273 243.596L245.899 228.969L233.919 216.98Z" fill="#43525B"/>
</g>
<defs>
<clipPath id="clip0_40_113">
<rect width="512" height="512" fill="white"/>
</clipPath>
</defs>
</svg>
