<svg width="512" height="512" viewBox="0 0 512 512" fill="none" xmlns="http://www.w3.org/2000/svg">
<path d="M256.68 379.073C335.14 379.073 398.744 315.469 398.744 237.009C398.744 158.549 335.14 94.945 256.68 94.945C178.22 94.945 114.616 158.549 114.616 237.009C114.616 315.469 178.22 379.073 256.68 379.073Z" fill="#E0BEA8"/>
<path d="M132.783 306.501C166.722 289.089 281.681 220.664 316.59 108.194C298.382 99.711 278.092 94.945 256.68 94.945C254.617 94.945 252.567 95.013 250.523 95.1C240.133 118.627 199.888 197.972 114.659 238.682C114.944 263.305 121.49 286.409 132.783 306.501Z" fill="#FFE3D1"/>
<path d="M332.219 116.713C291.623 239.36 164.958 304.57 139.119 316.776C149.829 332.53 163.638 345.992 179.647 356.346C270.008 295.413 360.573 183.393 377.387 162.11C365.963 143.752 350.519 128.229 332.219 116.713ZM398.744 237.01C398.744 228.871 398.022 220.905 396.709 213.14C363.914 302.596 270.201 360.42 238.898 377.926C244.728 378.655 250.653 379.073 256.68 379.073C335.141 379.073 398.744 315.469 398.744 237.01Z" fill="#FFE3D1"/>
<path d="M450.269 61.731C439.689 51.151 401.115 70.886 349.688 110.197C347.963 111.514 347.953 114.121 349.664 115.455L350.168 115.85C350.739 116.294 351.439 116.539 352.161 116.548C352.884 116.558 353.59 116.331 354.172 115.902C380.299 96.852 398.476 87.78 403.447 92.752C414.713 104.019 354.042 182.954 267.934 269.063C181.825 355.17 102.889 415.839 91.623 404.573C85.29 398.24 101.715 370.504 132.587 332.15C133.508 331.004 133.591 329.377 132.745 328.175L132.704 328.117C131.432 326.307 128.788 326.192 127.392 327.908C76.848 390.041 49.704 438.24 61.731 450.267C80.006 468.542 181.799 396.381 289.091 289.089C396.383 181.8 468.544 80.007 450.269 61.731Z" fill="#B7846A"/>
<path d="M210.607 371.391C214.064 372.578 217.564 373.669 221.136 374.59C272.458 342.669 344.887 289.889 393.235 197.855C392.185 194.168 390.986 190.526 389.639 186.937C376.095 211.294 325.24 301.061 210.607 371.391ZM206.038 104.273C202.189 105.734 198.405 107.363 194.698 109.154C173.844 138.369 145.388 162.12 129.122 174.449C127.627 177.502 126.243 180.608 124.973 183.761C164.471 159.382 196.485 117.526 206.038 104.273Z" fill="#FFE3D1"/>
</svg>
