<svg width="512" height="512" viewBox="0 0 512 512" fill="none" xmlns="http://www.w3.org/2000/svg">
<path d="M157.12 194.64L154.64 194.08L161.6 162.88L232.24 247.2L341.68 236.8L283.36 330L327.04 430.88L304.96 425.36L305.6 422.64L263.6 326.64L308.64 256.88L219.36 265.12L157.12 194.64Z" fill="#F9DB03"/>
<path d="M308.64 256.88L263.6 326.64L305.6 422.64L304.96 425.36L220.4 404.24L137.92 476.96L130.32 367.28L35.6802 311.36L137.68 270.24L154.64 194.08L157.12 194.64L219.36 265.12L308.64 256.88Z" fill="#F9DB03"/>
<path d="M446.08 338.4C466.493 338.4 483.04 319.954 483.04 297.2C483.04 274.446 466.493 256 446.08 256C425.668 256 409.12 274.446 409.12 297.2C409.12 319.954 425.668 338.4 446.08 338.4Z" fill="white"/>
<path d="M421.36 94.32L381.6 128L386.8 179.92L342.48 152.48L294.72 173.52L307.12 122.88L272.32 84L324.32 80.08L350.56 35.04L370.4 83.28L421.36 94.32Z" fill="#F9DB03"/>
<path d="M94.2401 117.52C84.4946 118.071 75.3657 122.466 68.8565 129.74C62.3474 137.014 58.9897 146.573 59.5201 156.32C60.0303 146.552 56.6442 136.98 50.1048 129.706C43.5655 122.432 34.4073 118.049 24.6401 117.52C34.4062 116.967 43.5541 112.563 50.0778 105.274C56.6015 97.9857 59.9684 88.4074 59.4401 78.64C58.9247 88.4042 62.2961 97.9754 68.8172 105.261C75.3383 112.547 84.4787 116.954 94.2401 117.52Z" fill="white"/>
<path d="M340.952 228.8L235.664 238.8L167.744 157.76C166.785 156.617 165.525 155.765 164.107 155.3C162.689 154.836 161.17 154.777 159.72 155.131C158.27 155.484 156.948 156.236 155.904 157.302C154.859 158.367 154.133 159.704 153.808 161.16L130.776 264.36L32.6801 303.928C31.2964 304.486 30.0964 305.421 29.2157 306.625C28.335 307.83 27.8088 309.257 27.6964 310.744C27.5841 312.232 27.8901 313.722 28.5799 315.045C29.2698 316.368 30.3159 317.472 31.6001 318.232L122.656 372L129.952 477.512C130.055 479.001 130.573 480.431 131.447 481.642C132.32 482.852 133.515 483.793 134.896 484.36C136.277 484.927 137.788 485.096 139.26 484.848C140.732 484.601 142.105 483.947 143.224 482.96L222.536 412.984L325.144 438.648C326.593 439.01 328.113 438.96 329.535 438.503C330.956 438.045 332.221 437.2 333.186 436.061C334.152 434.922 334.779 433.536 334.998 432.059C335.217 430.582 335.018 429.074 334.424 427.704L292.384 330.688L348.496 241.088C349.291 239.822 349.715 238.359 349.72 236.864C349.726 235.37 349.312 233.903 348.527 232.632C347.742 231.36 346.616 230.334 345.277 229.669C343.938 229.005 342.44 228.728 340.952 228.872V228.8ZM276.584 325.768C275.896 326.867 275.485 328.118 275.388 329.411C275.29 330.704 275.509 332.002 276.024 333.192L313.296 419.2L222.336 396.48C221.083 396.171 219.774 396.169 218.52 396.476C217.266 396.782 216.105 397.388 215.136 398.24L144.8 460.272L138.328 366.736C138.239 365.442 137.836 364.189 137.154 363.085C136.473 361.981 135.533 361.06 134.416 360.4L53.6961 312.704L140.656 277.648C141.856 277.161 142.92 276.389 143.756 275.4C144.592 274.41 145.176 273.233 145.456 271.968L165.872 180.464L226.088 252.328C226.917 253.328 227.978 254.108 229.179 254.602C230.38 255.096 231.684 255.287 232.976 255.16L326.312 246.296L276.584 325.768ZM426.512 100.392C427.651 99.427 428.497 98.1627 428.954 96.7421C429.412 95.3215 429.463 93.8012 429.102 92.3531C428.741 90.9049 427.981 89.5867 426.91 88.5474C425.839 87.5081 424.499 86.7892 423.04 86.472L376.184 76.32L357.992 32C357.425 30.6193 356.484 29.4246 355.274 28.551C354.064 27.6775 352.633 27.1598 351.144 27.0566C349.656 26.9534 348.167 27.2688 346.848 27.9671C345.529 28.6653 344.432 29.7186 343.68 31.008L319.544 72.4L271.752 76C270.264 76.1121 268.837 76.6382 267.632 77.519C266.427 78.3997 265.493 79.5999 264.934 80.984C264.376 82.368 264.216 83.8806 264.472 85.3509C264.728 86.8212 265.39 88.1905 266.384 89.304L298.32 125.056L286.976 171.632C286.624 173.082 286.685 174.602 287.151 176.019C287.617 177.437 288.471 178.696 289.615 179.654C290.76 180.611 292.149 181.23 293.626 181.44C295.104 181.649 296.611 181.442 297.976 180.84L341.832 161.52L382.632 186.704C383.903 187.49 385.368 187.905 386.862 187.901C388.356 187.897 389.819 187.475 391.086 186.682C392.352 185.89 393.372 184.758 394.028 183.416C394.685 182.074 394.952 180.574 394.8 179.088L390 131.4L426.512 100.392ZM376.416 121.92C375.426 122.758 374.654 123.825 374.168 125.027C373.681 126.23 373.495 127.533 373.624 128.824L377.24 164.576L346.664 145.696C345.56 145.014 344.306 144.611 343.011 144.522C341.717 144.433 340.42 144.66 339.232 145.184L306.4 159.664L314.856 124.8C315.16 123.544 315.155 122.233 314.842 120.979C314.528 119.725 313.915 118.565 313.056 117.6L289.12 90.8L324.944 88C326.237 87.9033 327.487 87.4938 328.587 86.8067C329.686 86.1197 330.602 85.1757 331.256 84.056L349.344 53.04L362.944 86.28C363.434 87.483 364.209 88.5487 365.203 89.385C366.197 90.2213 367.379 90.803 368.648 91.08L403.768 98.688L376.416 121.92ZM483.032 289.2C474.803 288.597 467.144 284.772 461.718 278.556C456.291 272.34 453.535 264.235 454.048 256C454.048 253.878 453.205 251.843 451.705 250.343C450.205 248.843 448.17 248 446.048 248C443.926 248 441.892 248.843 440.391 250.343C438.891 251.843 438.048 253.878 438.048 256C438.566 264.226 435.82 272.324 430.406 278.539C424.993 284.754 417.347 288.585 409.128 289.2C407.006 289.2 404.972 290.043 403.471 291.543C401.971 293.043 401.128 295.078 401.128 297.2C401.128 299.322 401.971 301.357 403.471 302.857C404.972 304.357 407.006 305.2 409.128 305.2C417.356 305.807 425.014 309.633 430.441 315.848C435.867 322.062 438.627 330.165 438.12 338.4C438.12 340.522 438.963 342.557 440.463 344.057C441.964 345.557 443.998 346.4 446.12 346.4C448.242 346.4 450.277 345.557 451.777 344.057C453.277 342.557 454.12 340.522 454.12 338.4C453.6 330.174 456.344 322.075 461.756 315.858C467.168 309.642 474.813 305.809 483.032 305.192C485.154 305.192 487.189 304.349 488.689 302.849C490.189 301.349 491.032 299.314 491.032 297.192C491.032 295.07 490.189 293.035 488.689 291.535C487.189 290.035 485.154 289.192 483.032 289.192V289.2ZM446.112 310.4C442.853 305.234 438.629 300.744 433.672 297.176C438.604 293.606 442.808 289.126 446.056 283.976C449.31 289.143 453.531 293.634 458.488 297.2C453.555 300.766 449.353 305.247 446.112 310.4ZM51.4961 156.304C51.4961 158.426 52.339 160.461 53.8393 161.961C55.3396 163.461 57.3744 164.304 59.4961 164.304C61.6179 164.304 63.6527 163.461 65.153 161.961C66.6533 160.461 67.4961 158.426 67.4961 156.304C67.0066 148.679 69.542 141.168 74.5527 135.4C79.5634 129.631 86.6456 126.07 94.2641 125.488C96.3859 125.488 98.4207 124.645 99.921 123.145C101.421 121.645 102.264 119.61 102.264 117.488C102.264 115.366 101.421 113.331 99.921 111.831C98.4207 110.331 96.3859 109.488 94.2641 109.488C86.635 108.918 79.5384 105.363 74.5138 99.5936C69.4891 93.8246 66.9417 86.3071 67.4241 78.672C67.4241 76.5502 66.5813 74.5154 65.081 73.0151C63.5807 71.5148 61.5459 70.672 59.4241 70.672C57.3024 70.672 55.2676 71.5148 53.7673 73.0151C52.267 74.5154 51.4241 76.5502 51.4241 78.672C51.9114 86.2991 49.3731 93.811 44.3594 99.5794C39.3458 105.348 32.2608 108.908 24.6401 109.488C22.5184 109.488 20.4836 110.331 18.9833 111.831C17.483 113.331 16.6401 115.366 16.6401 117.488C16.6401 119.61 17.483 121.645 18.9833 123.145C20.4836 124.645 22.5184 125.488 24.6401 125.488C32.2713 126.056 39.3707 129.61 44.3984 135.379C49.426 141.148 51.9763 148.667 51.4961 156.304ZM59.4321 105.904C62.3724 110.39 66.0861 114.317 70.4001 117.504C66.1215 120.691 62.4407 124.61 59.5281 129.08C56.5978 124.595 52.8951 120.664 48.5921 117.472C52.8589 114.282 56.5286 110.371 59.4321 105.904Z" fill="#F9DB03"/>
</svg>
