<svg width="512" height="512" viewBox="0 0 512 512" fill="none" xmlns="http://www.w3.org/2000/svg">
<path d="M112 178.56C111.141 181.273 111.229 184.197 112.249 186.854C113.269 189.51 115.161 191.742 117.615 193.183C120.069 194.623 122.939 195.188 125.756 194.784C128.573 194.381 131.17 193.032 133.12 190.96C134.559 189.608 135.608 187.895 136.16 186C137.162 182.764 136.84 179.263 135.266 176.264C133.691 173.265 130.992 171.013 127.76 170C126.163 169.513 124.485 169.347 122.824 169.511C121.163 169.676 119.55 170.168 118.08 170.96C116.601 171.744 115.298 172.822 114.252 174.13C113.206 175.437 112.44 176.945 112 178.56Z" fill="#DB1935"/>
<path d="M112 178.56C111.141 181.273 111.229 184.197 112.249 186.854C113.269 189.51 115.161 191.742 117.615 193.183C120.069 194.623 122.939 195.188 125.756 194.784C128.573 194.381 131.17 193.032 133.12 190.96C134.559 189.608 135.608 187.895 136.16 186C137.162 182.764 136.84 179.263 135.266 176.264C133.691 173.265 130.992 171.013 127.76 170C126.163 169.513 124.485 169.347 122.824 169.511C121.163 169.676 119.55 170.168 118.08 170.96C116.601 171.744 115.298 172.822 114.252 174.13C113.206 175.437 112.44 176.945 112 178.56Z" fill="#DB1935"/>
<path d="M123.84 198.96C122.187 198.956 120.544 198.713 118.96 198.24C116.861 197.602 114.909 196.553 113.219 195.154C111.528 193.756 110.133 192.035 109.113 190.092C108.093 188.15 107.47 186.024 107.279 183.838C107.088 181.652 107.333 179.45 108 177.36C108.618 175.273 109.643 173.329 111.016 171.64C112.389 169.951 114.083 168.551 116 167.52C119.906 165.434 124.477 164.974 128.72 166.24C132.903 167.549 136.425 170.412 138.56 174.24C140.62 178.156 141.051 182.727 139.76 186.96C138.99 189.486 137.585 191.772 135.68 193.6C134.191 195.272 132.368 196.613 130.329 197.536C128.289 198.46 126.079 198.945 123.84 198.96ZM123.84 173.52C122.419 173.552 121.023 173.908 119.76 174.56C117.742 175.66 116.225 177.493 115.52 179.68C114.879 181.894 115.108 184.269 116.16 186.32C116.651 187.344 117.354 188.252 118.223 188.983C119.092 189.714 120.107 190.251 121.2 190.56C122.724 191.043 124.353 191.081 125.898 190.67C127.443 190.259 128.838 189.416 129.92 188.24C130.948 187.319 131.697 186.127 132.08 184.8C132.457 183.712 132.596 182.556 132.485 181.41C132.375 180.264 132.018 179.156 131.44 178.16C130.669 176.72 129.512 175.524 128.099 174.704C126.686 173.885 125.073 173.475 123.44 173.52H123.84ZM103.04 345.84C101.959 345.837 100.923 345.406 100.16 344.64C99.4271 343.892 99.0166 342.887 99.0166 341.84C99.0166 340.793 99.4271 339.788 100.16 339.04L145.6 293.6C145.972 293.225 146.414 292.927 146.902 292.724C147.389 292.521 147.912 292.417 148.44 292.417C148.968 292.417 149.491 292.521 149.978 292.724C150.466 292.927 150.908 293.225 151.28 293.6C152.018 294.361 152.431 295.38 152.431 296.44C152.431 297.5 152.018 298.519 151.28 299.28L105.84 344.64C105.102 345.394 104.095 345.825 103.04 345.84ZM107.2 393.84C106.677 393.837 106.16 393.729 105.679 393.523C105.198 393.317 104.763 393.017 104.4 392.64C104.025 392.268 103.728 391.826 103.524 391.338C103.321 390.851 103.217 390.328 103.217 389.8C103.217 389.272 103.321 388.749 103.524 388.262C103.728 387.774 104.025 387.332 104.4 386.96L149.84 341.52C150.588 340.787 151.593 340.377 152.64 340.377C153.687 340.377 154.692 340.787 155.44 341.52C155.815 341.892 156.113 342.334 156.316 342.822C156.519 343.309 156.623 343.832 156.623 344.36C156.623 344.888 156.519 345.411 156.316 345.898C156.113 346.386 155.815 346.828 155.44 347.2L110 392.64C109.643 393.024 109.209 393.33 108.727 393.536C108.245 393.743 107.725 393.846 107.2 393.84Z" fill="#231F20"/>
<path d="M408 366.08C403.12 371.76 392 372.72 374.32 367.76C369.76 366.4 364.88 364.8 359.84 362.8C360.258 359.803 359.593 356.755 357.965 354.203C356.338 351.652 353.854 349.765 350.96 348.88C348.576 348.135 346.024 348.117 343.63 348.83C341.236 349.542 339.109 350.952 337.52 352.88C309.014 338.337 281.749 321.481 256 302.48C238.56 289.84 221.12 276.16 204.48 261.76C187.714 247.472 171.693 232.332 156.48 216.4C147.92 207.44 140.48 198.88 133.68 190.96C135.119 189.608 136.168 187.895 136.72 186C137.722 182.764 137.4 179.264 135.826 176.264C134.251 173.265 131.552 171.013 128.32 170C126.723 169.513 125.045 169.347 123.384 169.511C121.722 169.676 120.11 170.169 118.64 170.96C91.12 130.96 96.88 109.76 138.56 121.44C149.554 124.74 160.257 128.941 170.56 134C183.929 140.42 196.96 147.523 209.6 155.28C263.303 188.265 312.741 227.735 356.8 272.8L357.84 273.92C401.2 320 418.72 353.92 408 366.08Z" fill="#DB1935"/>
<path d="M408 366.08C403.12 371.76 392 372.72 374.32 367.76C369.76 366.4 364.88 364.8 359.84 362.8C360.258 359.803 359.593 356.755 357.965 354.203C356.338 351.652 353.854 349.765 350.96 348.88C348.576 348.135 346.024 348.117 343.63 348.83C341.236 349.542 339.109 350.952 337.52 352.88C309.014 338.337 281.749 321.481 256 302.48C238.56 289.84 221.12 276.16 204.48 261.76C187.714 247.472 171.693 232.332 156.48 216.4C147.92 207.44 140.48 198.88 133.68 190.96C135.119 189.608 136.168 187.895 136.72 186C137.722 182.764 137.4 179.264 135.826 176.264C134.251 173.265 131.552 171.013 128.32 170C126.723 169.513 125.045 169.347 123.384 169.511C121.722 169.676 120.11 170.169 118.64 170.96C91.12 130.96 96.88 109.76 138.56 121.44C149.554 124.74 160.257 128.941 170.56 134C126.88 138.56 75.52 171.12 408 366.08Z" fill="#DB1935"/>
<path d="M370 241.76C366.877 252.021 362.035 261.679 355.68 270.32L352.8 267.36C310.086 224.615 262.508 187.025 211.04 155.36C223.933 137.911 242.434 125.426 263.44 120C277.999 117.537 292.932 118.523 307.04 122.88C318.992 126.533 330.105 132.509 339.742 140.466C349.379 148.423 357.351 158.205 363.2 169.249C369.05 180.293 372.661 192.384 373.828 204.827C374.995 217.27 373.694 229.821 370 241.76Z" fill="#1754DD"/>
<path d="M370 241.76C366.877 252.022 362.035 261.679 355.68 270.32L352.8 267.36C384.08 200.48 341.76 150.4 307.36 123.36C331.33 130.81 351.375 147.447 363.113 169.634C374.851 191.821 377.327 217.753 370 241.76ZM294.24 357.44C238.24 316.64 181.76 272.4 128.08 226C166.011 288.234 224.945 334.854 294.24 357.44Z" fill="#1754DD"/>
<path d="M294.24 357.44C238.24 316.64 181.76 272.4 128.08 226C166.011 288.234 224.945 334.854 294.24 357.44Z" fill="#1754DD"/>
<path d="M387.92 354.72C387.377 354.722 386.839 354.61 386.343 354.389C385.846 354.168 385.402 353.845 385.04 353.44C383.52 352 229.6 191.36 123.2 144C122.664 143.831 122.169 143.551 121.748 143.179C121.328 142.806 120.99 142.349 120.758 141.837C120.526 141.325 120.404 140.77 120.401 140.208C120.397 139.646 120.512 139.089 120.739 138.575C120.965 138.06 121.297 137.599 121.713 137.221C122.13 136.844 122.621 136.558 123.155 136.383C123.689 136.208 124.254 136.148 124.813 136.206C125.373 136.264 125.913 136.439 126.4 136.72C234.24 184.72 389.28 346.56 390.8 348.16C391.175 348.532 391.472 348.974 391.676 349.462C391.879 349.949 391.983 350.472 391.983 351C391.983 351.528 391.879 352.051 391.676 352.538C391.472 353.026 391.175 353.468 390.8 353.84C389.984 354.483 388.956 354.797 387.92 354.72Z" fill="#231F20"/>
<path d="M334.96 357.36C334.527 360.357 335.177 363.411 336.795 365.972C338.412 368.533 340.89 370.432 343.783 371.329C346.676 372.226 349.794 372.061 352.576 370.864C355.358 369.667 357.622 367.517 358.96 364.8C359.162 364.149 359.296 363.479 359.36 362.8C359.767 360.069 359.268 357.28 357.94 354.86C356.612 352.439 354.528 350.52 352.007 349.395C349.485 348.27 346.665 348.002 343.977 348.632C341.289 349.261 338.88 350.753 337.12 352.88C336.101 354.21 335.366 355.735 334.96 357.36Z" fill="#DB1935"/>
<path d="M334.96 357.36C334.527 360.357 335.177 363.411 336.795 365.972C338.412 368.533 340.89 370.432 343.783 371.329C346.676 372.226 349.794 372.061 352.576 370.864C355.358 369.667 357.622 367.517 358.96 364.8C359.162 364.149 359.296 363.479 359.36 362.8C359.767 360.069 359.268 357.28 357.94 354.86C356.612 352.439 354.528 350.52 352.007 349.395C349.485 348.27 346.665 348.002 343.977 348.632C341.289 349.261 338.88 350.753 337.12 352.88C336.101 354.21 335.366 355.735 334.96 357.36Z" fill="#DB1935"/>
<path d="M347.2 377.68C345.521 377.677 343.851 377.434 342.24 376.96C338.053 375.659 334.529 372.793 332.4 368.96C331.359 367.028 330.717 364.907 330.51 362.722C330.304 360.537 330.539 358.333 331.2 356.24C331.822 354.135 332.856 352.175 334.242 350.474C335.628 348.772 337.338 347.363 339.274 346.329C341.209 345.294 343.331 344.654 345.516 344.447C347.7 344.239 349.904 344.468 352 345.12C355.797 346.249 359.064 348.703 361.207 352.035C363.35 355.367 364.227 359.356 363.68 363.28C363.557 364.172 363.369 365.054 363.12 365.92C361.857 370.127 358.981 373.665 355.12 375.76C352.69 377.073 349.962 377.734 347.2 377.68ZM339.2 358.48C338.869 359.572 338.757 360.72 338.872 361.856C338.986 362.992 339.325 364.094 339.868 365.098C340.411 366.102 341.148 366.989 342.035 367.707C342.923 368.424 343.944 368.959 345.04 369.28C347.225 369.956 349.59 369.737 351.614 368.673C353.639 367.608 355.158 365.784 355.84 363.6C355.877 363.094 355.877 362.586 355.84 362.08C356.081 360.055 355.605 358.01 354.494 356.3C353.383 354.59 351.708 353.323 349.76 352.72C347.554 352.108 345.197 352.364 343.174 353.436C341.151 354.507 339.614 356.312 338.88 358.48H339.2ZM236.88 155.52C236.212 155.512 235.556 155.34 234.971 155.019C234.385 154.698 233.887 154.238 233.52 153.68C232.949 152.788 232.754 151.707 232.979 150.672C233.204 149.637 233.83 148.734 234.72 148.16C247.804 139.498 262.839 134.23 278.468 132.834C294.097 131.437 309.828 133.955 324.24 140.16C324.773 140.348 325.261 140.647 325.67 141.038C326.079 141.428 326.401 141.901 326.614 142.425C326.827 142.949 326.927 143.513 326.906 144.078C326.886 144.643 326.745 145.198 326.495 145.705C326.244 146.212 325.888 146.66 325.452 147.02C325.015 147.379 324.507 147.642 323.962 147.791C323.416 147.94 322.845 147.971 322.286 147.883C321.727 147.795 321.193 147.589 320.72 147.28C307.48 141.876 293.122 139.781 278.89 141.175C264.658 142.569 250.98 147.41 239.04 155.28C238.362 155.581 237.608 155.664 236.88 155.52ZM163.6 398.88C162.545 398.865 161.539 398.434 160.8 397.68C160.062 396.919 159.649 395.9 159.649 394.84C159.649 393.78 160.062 392.761 160.8 392L206.24 346.56C206.613 346.187 207.056 345.891 207.543 345.689C208.03 345.487 208.553 345.384 209.08 345.384C209.607 345.384 210.13 345.487 210.617 345.689C211.104 345.891 211.547 346.187 211.92 346.56C212.293 346.933 212.589 347.376 212.791 347.863C212.992 348.35 213.096 348.873 213.096 349.4C213.096 349.927 212.992 350.45 212.791 350.937C212.589 351.424 212.293 351.867 211.92 352.24L166.48 397.68C165.717 398.446 164.681 398.877 163.6 398.88ZM296 361.44H294.72C224.69 338.378 165.143 291.166 126.72 228.24C126.216 227.426 126.028 226.456 126.19 225.513C126.352 224.57 126.854 223.719 127.6 223.12C128.325 222.5 129.247 222.16 130.2 222.16C131.153 222.16 132.075 222.5 132.8 223.12C184.56 267.84 240 312 298.48 354.24C299.147 354.739 299.64 355.435 299.893 356.228C300.145 357.022 300.144 357.875 299.888 358.668C299.633 359.46 299.136 360.154 298.468 360.651C297.8 361.148 296.993 361.424 296.16 361.44H296ZM150 248.4C181.238 289.739 222.553 322.379 270 343.2C228.48 312.4 188.32 280.56 150 248.4Z" fill="#231F20"/>
<path d="M359.28 278C358.356 277.978 357.462 277.67 356.72 277.12C356.12 276.597 355.583 276.007 355.12 275.36L352.96 273.28C309.741 229.465 261.391 191.027 208.96 158.8C208.49 158.508 208.085 158.123 207.769 157.669C207.452 157.215 207.232 156.702 207.12 156.16C207.005 155.611 207.003 155.044 207.113 154.495C207.223 153.945 207.443 153.423 207.76 152.96C217.749 139.59 230.954 128.961 246.15 122.06C261.346 115.159 278.04 112.21 294.68 113.487C311.321 114.764 327.369 120.225 341.334 129.364C355.299 138.503 366.728 151.022 374.56 165.76C380.691 177.233 384.485 189.809 385.72 202.758C386.956 215.708 385.61 228.774 381.76 241.2C377.816 254.213 371.194 266.257 362.32 276.56C361.952 277.011 361.488 277.374 360.962 277.623C360.437 277.872 359.862 278.001 359.28 278ZM216.96 154.24C268.402 186.369 315.922 224.386 358.56 267.52L359.04 268C365.792 259.295 370.89 249.425 374.08 238.88C380.284 218.751 379.311 197.093 371.325 177.603C363.34 158.112 348.838 141.997 330.294 132.008C311.751 122.018 290.315 118.774 269.646 122.829C248.977 126.883 230.355 137.985 216.96 154.24Z" fill="#231F20"/>
<path d="M393.84 374.96C386.815 374.767 379.846 373.637 373.12 371.6C368.4 370.24 363.36 368.48 358.24 366.48C357.414 366.15 356.722 365.553 356.273 364.785C355.823 364.018 355.643 363.122 355.76 362.24C356.041 360.19 355.584 358.106 354.47 356.362C353.356 354.618 351.658 353.327 349.68 352.72C348.069 352.137 346.313 352.087 344.672 352.576C343.03 353.066 341.589 354.07 340.56 355.44C339.976 356.129 339.181 356.605 338.298 356.793C337.414 356.981 336.494 356.871 335.68 356.48C306.876 341.894 279.341 324.928 253.36 305.76C235.2 292.56 217.76 278.8 201.52 264.8C184.545 250.434 168.336 235.186 152.96 219.12C143.92 209.68 136.4 201.28 129.92 193.44C129.239 192.714 128.861 191.755 128.861 190.76C128.861 189.765 129.239 188.806 129.92 188.08C130.843 187.165 131.53 186.039 131.92 184.8C132.595 182.593 132.367 180.209 131.288 178.17C130.208 176.131 128.364 174.602 126.16 173.92C123.945 173.287 121.573 173.516 119.52 174.56C118.666 175.012 117.676 175.14 116.735 174.92C115.794 174.699 114.964 174.145 114.4 173.36C97.68 148.96 92.8 131.6 99.84 121.68C105.76 113.68 118.8 112.08 138.64 117.68C164.002 126.011 188.197 137.544 210.64 152C264.871 185.07 314.774 224.762 359.2 270.16L360.32 271.36C402.96 316 422.08 350.72 412.56 366.56C410.489 369.52 407.655 371.864 404.359 373.343C401.063 374.822 397.428 375.381 393.84 374.96ZM363.84 360C367.76 361.44 371.84 362.8 375.36 363.84C391.36 368.4 402.4 367.84 405.76 362.32C411.2 353.28 400.96 325.44 354.4 276.72L353.36 275.52C309.59 230.701 260.444 191.47 207.04 158.72C185.131 144.655 161.53 133.419 136.8 125.28C120.8 120.88 110.32 121.2 106.72 126.32C103.12 131.44 106.72 147.28 119.52 166.32C122.551 165.44 125.769 165.44 128.8 166.32C132.995 167.606 136.524 170.476 138.64 174.32C139.69 176.248 140.344 178.366 140.564 180.551C140.783 182.735 140.565 184.941 139.92 187.04C139.499 188.364 138.907 189.628 138.16 190.8C144 197.76 150.88 205.36 158.72 213.52C173.949 229.359 189.97 244.418 206.72 258.64C222.72 272.56 240.08 286.16 258 299.2C282.928 317.451 309.219 333.766 336.64 348C338.74 346.247 341.255 345.061 343.944 344.557C346.634 344.053 349.407 344.247 352 345.12C355.263 346.083 358.15 348.029 360.269 350.691C362.387 353.353 363.634 356.604 363.84 360Z" fill="#231F20"/>
</svg>
