<svg width="512" height="512" viewBox="0 0 512 512" fill="none" xmlns="http://www.w3.org/2000/svg">
<path d="M107.006 320.29C96.64 330.266 96.324 346.756 106.3 357.122C107.426 358.285 108.658 359.34 109.98 360.275C113.873 350.031 122.974 326.576 128.173 313.2C120.682 312.305 112.866 314.65 107.006 320.29Z" fill="#D94C53"/>
<path d="M325.951 109.577C336.316 99.601 352.805 99.917 362.782 110.283C363.902 111.453 364.91 112.724 365.793 114.081C355.406 117.578 331.621 125.775 318.055 130.458C317.448 122.938 320.091 115.217 325.951 109.577Z" fill="#FE5B67"/>
<path d="M288.297 289.559C209.641 371.559 123.253 402.516 123.253 402.516C192.541 408.088 279.343 350.473 314.88 315.684C350.416 280.895 410.407 198.413 407.493 128.962C407.493 128.962 373.251 214.101 288.297 289.559Z" fill="#304757"/>
<path d="M389.053 98.833L277.325 136.313C273.649 137.552 270.492 139.983 268.355 143.22C261.875 152.995 244.643 176.699 210.917 209.157C177.191 241.615 152.845 257.925 142.829 264.027C139.513 266.04 136.963 269.101 135.583 272.726L93.851 382.936C89.026 395.68 100.525 408.494 113.751 405.216C192.897 385.61 288.296 289.561 288.296 289.561C288.296 289.561 387.928 197.911 410.554 119.574C414.335 106.481 401.972 94.499 389.053 98.833Z" fill="#FFE3D1"/>
<path d="M412.88 95.733C407.944 95.494 403.637 98.983 402.805 103.854C389.531 181.633 281.549 282.547 281.549 282.547C281.549 282.547 176.573 386.582 98.3431 396.869C93.4441 397.514 89.7921 401.683 89.8421 406.625C89.9001 412.373 94.8791 416.793 100.6 416.23C125.914 413.742 191.705 392.988 295.496 297.037C396.772 196.359 418.61 132.051 422.066 106.851C422.847 101.155 418.622 96.011 412.88 95.733Z" fill="#FE5B67"/>
<path d="M128.296 123.307C91.697 158.53 90.582 216.753 125.804 253.352C131.642 259.417 138.285 264.652 145.548 268.909C171.809 253.928 243.917 208.505 273.331 146.502C269.323 138.937 264.278 131.969 258.342 125.799C223.119 89.199 164.895 88.083 128.296 123.307Z" fill="#304757"/>
<path d="M246.816 274.771C262.453 274.771 275.13 262.094 275.13 246.457C275.13 230.82 262.453 218.143 246.816 218.143C231.179 218.143 218.502 230.82 218.502 246.457C218.502 262.094 231.179 274.771 246.816 274.771Z" fill="#FE5B67"/>
<path d="M138.084 115.131C137.575 116.876 137.25 118.666 137.214 120.51C136.889 137.464 157.583 151.61 183.435 152.105C209.287 152.6 230.507 139.258 230.832 122.304C230.982 114.503 226.644 107.318 219.439 101.762C192.311 93.334 162.007 97.736 138.084 115.131ZM227.183 226.056C225.47 227.704 224.041 229.531 222.834 231.458C227.838 235.982 235.843 239.011 244.947 239.186C255.629 239.391 264.975 235.624 269.768 229.929C268.993 228.855 268.164 227.806 267.217 226.824C256.373 215.556 238.449 215.213 227.183 226.056Z" fill="#FEFEFE"/>
</svg>
