<svg width="512" height="512" viewBox="0 0 512 512" fill="none" xmlns="http://www.w3.org/2000/svg">
<path d="M435.2 177.632C450.485 196.017 469.333 232.966 469.333 303.407C469.333 421.926 416 469.333 336 469.333C256 469.333 256 374.513 149.333 374.517C42.6666 374.522 42.6666 256 42.6666 232.296C42.6666 208.593 42.6666 184.887 96 161.184C126.632 147.569 139.671 110.496 145.22 81.3973C147.25 70.5254 153.014 60.7044 161.517 53.6322C170.02 46.56 180.727 42.6813 191.787 42.6666H292.975C303.798 42.6671 314.54 44.52 324.738 48.145L346.844 56.0042C343.28 65.3758 341.414 75.3073 341.333 85.3333C341.357 107.958 350.355 129.649 366.353 145.647C382.351 161.645 404.042 170.643 426.667 170.667C427.904 170.667 429.054 170.355 430.278 170.302C431.685 172.894 433.333 175.349 435.2 177.632Z" fill="#CBD5E1"/>
<path d="M277.333 96C277.357 119.798 270.137 143.04 256.632 162.635C243.128 182.23 223.978 197.251 201.73 205.699C179.482 214.148 155.19 215.624 132.082 209.932C108.975 204.241 88.1476 191.65 72.369 173.835C79.8885 168.982 87.7917 164.751 96 161.184C126.632 147.569 139.671 110.496 145.22 81.3973C147.25 70.5254 153.014 60.7044 161.517 53.6322C170.02 46.56 180.727 42.6813 191.787 42.6666H264.418C272.901 59.165 277.329 77.4483 277.333 96ZM426.667 42.6666C418.228 42.6666 409.979 45.169 402.962 49.8573C395.946 54.5455 390.477 61.2092 387.248 69.0055C384.018 76.8018 383.173 85.3806 384.82 93.6571C386.466 101.934 390.53 109.536 396.497 115.503C402.464 121.47 410.066 125.534 418.343 127.18C426.619 128.826 435.198 127.981 442.994 124.752C450.791 121.523 457.454 116.054 462.143 109.038C466.831 102.021 469.333 93.772 469.333 85.3333C469.333 74.0174 464.838 63.165 456.836 55.1634C448.835 47.1618 437.983 42.6666 426.667 42.6666Z" fill="#FFEDD5"/>
<path d="M106.667 448C106.667 452.219 105.415 456.344 103.071 459.852C100.727 463.36 97.3954 466.095 93.4972 467.709C89.5991 469.324 85.3097 469.747 81.1714 468.923C77.0331 468.1 73.2319 466.068 70.2484 463.085C67.2649 460.101 65.2331 456.3 64.4099 452.162C63.5868 448.024 64.0092 443.734 65.6239 439.836C67.2386 435.938 69.9729 432.606 73.4812 430.262C76.9894 427.918 81.114 426.667 85.3333 426.667C90.9913 426.667 96.4175 428.914 100.418 432.915C104.419 436.916 106.667 442.342 106.667 448ZM443.418 170.812C460.105 190.886 480 230.178 480 303.407C480 449.365 401.687 480 336 480C294.374 480 271.812 456.853 250.027 434.468C238.152 419.076 222.893 406.624 205.431 398.078C187.969 389.532 168.774 385.121 149.333 385.188C74.7712 385.188 32 329.459 32 232.292C32 208.083 32 177.948 91.6672 151.439C118.146 139.667 129.707 105.771 134.75 79.407C137.263 66.1065 144.333 54.0975 154.742 45.4454C165.152 36.7933 178.251 32.0389 191.787 32H292.975C305.014 31.9966 316.965 34.0574 328.307 38.0928L351.251 46.2486C347.889 52.5517 345.342 59.2574 343.674 66.2038L321.167 58.1974C312.118 54.9754 302.584 53.3302 292.979 53.3334H284.425C288.199 65.2221 290.203 77.6014 290.374 90.0736C290.334 124.323 276.71 157.159 252.492 181.377C228.273 205.595 195.438 219.219 161.188 219.26C129.073 219.179 98.1606 207.038 74.5749 185.242C66.8935 190.22 60.8065 197.303 57.0401 205.646C53.2737 213.988 51.9869 223.238 53.3333 232.292C53.3333 292.311 69.9733 363.855 149.333 363.855C171.63 363.676 193.693 368.606 213.79 378.266C233.886 387.926 251.503 402.06 265.291 419.584C285.73 440.553 303.375 458.667 336 458.667C417.395 458.667 458.667 406.428 458.667 303.407C458.667 236.553 441.459 201.822 426.999 184.459C423.386 180.036 420.447 175.103 418.278 169.82C421.058 170.243 423.858 170.525 426.667 170.667C431.948 170.626 437.213 170.094 442.396 169.077C442.801 169.623 442.978 170.285 443.418 170.812ZM100.333 170.938C98.0864 171.936 96.4373 172.9 94.4 173.886C113.263 189.293 136.833 197.776 161.188 197.926C178.537 198.012 195.648 193.89 211.055 185.915C226.462 177.939 239.706 166.348 249.652 152.133C259.599 137.918 265.951 121.504 268.165 104.297C270.379 87.0901 268.388 69.6028 262.364 53.3334H191.787C183.216 53.368 174.925 56.3885 168.34 61.8753C161.755 67.3621 157.288 74.9721 155.708 83.3963C149.709 114.773 135.23 155.418 100.333 170.938ZM341.333 245.333C344.162 245.333 346.875 244.21 348.876 242.209C350.876 240.209 352 237.496 352 234.667C352 231.838 350.876 229.125 348.876 227.124C346.875 225.124 344.162 224 341.333 224C326.566 224 312.13 228.379 299.851 236.584C287.572 244.788 278.002 256.449 272.35 270.093C266.699 283.737 265.22 298.75 268.101 313.233C270.982 327.717 278.094 341.022 288.536 351.464C298.978 361.906 312.283 369.018 326.767 371.899C341.25 374.78 356.263 373.301 369.907 367.65C383.551 361.998 395.212 352.428 403.416 340.149C411.621 327.87 416 313.434 416 298.667C416 295.838 414.876 293.125 412.876 291.124C410.875 289.124 408.162 288 405.333 288C402.504 288 399.791 289.124 397.791 291.124C395.79 293.125 394.667 295.838 394.667 298.667C394.667 309.215 391.539 319.526 385.678 328.297C379.818 337.068 371.488 343.904 361.743 347.94C351.998 351.977 341.274 353.033 330.928 350.975C320.583 348.917 311.08 343.838 303.621 336.379C296.162 328.92 291.083 319.417 289.025 309.071C286.967 298.726 288.023 288.002 292.06 278.257C296.096 268.511 302.932 260.182 311.703 254.322C320.474 248.461 330.785 245.333 341.333 245.333ZM373.333 85.3334C373.333 74.785 376.461 64.4736 382.322 55.7029C388.182 46.9323 396.511 40.0965 406.257 36.0598C416.002 32.0231 426.726 30.9669 437.071 33.0248C447.417 35.0827 456.92 40.1622 464.379 47.621C471.838 55.0798 476.917 64.5829 478.975 74.9285C481.033 85.2742 479.977 95.9977 475.94 105.743C471.904 115.489 465.068 123.818 456.297 129.678C447.526 135.539 437.215 138.667 426.667 138.667C412.526 138.652 398.969 133.028 388.971 123.029C378.972 113.031 373.348 99.4737 373.333 85.3334ZM394.667 85.3334C394.667 91.6624 396.543 97.8492 400.06 103.112C403.576 108.374 408.574 112.475 414.421 114.898C420.268 117.32 426.702 117.953 432.91 116.718C439.117 115.484 444.819 112.436 449.294 107.961C453.769 103.485 456.817 97.7836 458.052 91.5762C459.287 85.3689 458.653 78.9347 456.231 73.0875C453.809 67.2402 449.707 62.2425 444.445 58.7263C439.183 55.2101 432.996 53.3334 426.667 53.3334C418.183 53.343 410.049 56.7175 404.05 62.7165C398.051 68.7156 394.676 76.8494 394.667 85.3334Z" fill="#0F172A"/>
</svg>
