<svg width="512" height="512" viewBox="0 0 512 512" fill="none" xmlns="http://www.w3.org/2000/svg">
<path d="M256 488C384.13 488 488 384.13 488 256C488 127.87 384.13 24 256 24C127.87 24 24 127.87 24 256C24 384.13 127.87 488 256 488Z" fill="#5FADED"/>
<path d="M450.184 360.008C449.696 358.328 444.64 343.424 415.656 338.592C398.929 337.098 382.07 338.795 365.976 343.592C360.764 345.073 355.427 346.069 350.032 346.568C338.936 343.32 265.144 297.808 259.416 287.712C256.936 282.272 253.704 272.512 260.008 268.416C267.368 263.64 286.592 266.32 299.928 281.432C303.65 286.249 308.983 289.563 314.95 290.767C320.917 291.97 327.118 290.982 332.416 287.984C337.991 284.357 342.069 278.84 343.902 272.447C345.734 266.053 345.198 259.214 342.392 253.184C340.632 248.544 338.712 243.952 336.832 239.448C330.464 224.272 324.456 209.944 328.952 199.976C331.476 195.432 334.681 191.301 338.456 187.728C346.792 178.864 360.752 164.032 343.16 145.648C323.568 125.168 315.16 122.192 286.704 125.856C270.49 127.696 254.179 123.342 241.04 113.664C238.444 111.719 236.692 108.853 236.144 105.656C236.144 85.832 190.48 64.496 163.264 53.544L151.672 48.88C124.352 62.7045 100.023 81.7754 80.0744 105.003C60.1256 128.231 44.9479 155.162 35.408 184.256L63.232 158.976C63.768 158.496 117.64 110.912 147.136 133.512C149.568 135.384 146.176 151.016 143.936 161.368C140.123 177.677 137.392 194.219 135.76 210.888C133.707 232.236 136.588 253.77 144.18 273.827C151.771 293.885 163.871 311.929 179.544 326.568C197.192 343.68 242.792 362.032 279.432 376.784C292.315 381.549 304.923 387.024 317.2 393.184C316.031 395.803 314.611 398.302 312.96 400.648C308.128 408.12 301.52 418.352 305.928 429.656C312.888 447.568 357.288 450.76 376.04 451.304L380.76 451.44C410.858 432.172 436.138 406.261 454.656 375.696L450.184 360.008ZM274.28 24.784C263.112 41.952 260.256 56.816 265.616 69.648C283.48 112.384 388.16 106.208 399.296 105.376L432.8 106.016C413.044 82.6868 388.866 63.4989 361.659 49.5584C334.452 35.618 304.755 27.1927 274.28 24.784Z" fill="#4B8047"/>
</svg>
