<svg width="512" height="512" viewBox="0 0 512 512" fill="none" xmlns="http://www.w3.org/2000/svg">
<path opacity="0.6" d="M412.95 381.15C407.83 387.589 402.36 393.67 396.58 399.349C388.85 406.95 380.57 413.86 371.82 420.019C338.9 443.219 299.389 455.929 257.889 455.929C229.969 455.929 202.949 450.19 177.569 438.889C169.829 435.429 162.269 431.459 155.099 427.079C148.139 422.839 141.329 418.079 134.859 412.939C128.089 407.558 121.719 401.798 115.789 395.689C85.479 364.508 66.399 324.409 61.369 280.479C57.579 247.329 62.079 214.489 74.189 184.378C79.039 172.328 85.099 160.719 92.329 149.689C95.659 144.609 99.239 139.659 103.069 134.849C140.839 87.328 197.359 60.069 258.139 60.069C303.24 60.069 345.78 74.939 381.16 103.059C382.7 104.279 384.05 105.389 385.3 106.449C388.46 109.089 391.59 111.879 394.81 114.949C395.25 115.369 395.691 115.789 396.121 116.209C430.921 150.029 451.961 195.329 455.431 243.959C458.97 293.51 443.88 342.23 412.95 381.15Z" fill="#8F3B29"/>
<path d="M114.829 366.91C115.449 360.41 121.529 356.45 127.319 355.55C142.079 353.25 153.859 363.68 164.559 371.45C177.549 380.88 191.029 392.92 207.049 397.22C211.959 398.55 216.659 398.401 219.449 394.62C222.329 390.7 221.479 387.2 218.839 382.38C210.199 366.59 195.709 354.43 182.509 342.89C170.769 332.64 157.799 323.35 147.039 312C141.399 306.07 135.679 299.46 131.839 292.05C128.569 285.75 124.869 274.67 133.549 269.18C154.209 256.151 175.739 278.1 188.809 289.75C197.999 297.94 207.509 305.72 217.279 313.21C229.769 322.8 242.989 332.2 258.34 337.02C267.65 339.96 282.26 341.64 291.4 334.42C300.22 327.481 290.621 315.55 285.6 310.691C276.83 302.211 266.56 295.491 256.33 288.92C246.14 282.35 236.45 275.47 226.78 268.18C212.92 257.71 198.56 247.811 185.3 236.571C175.33 228.121 165.17 219.161 158.13 207.871C153.49 200.432 148.46 190.011 152.87 180.341C157.12 171.022 167.09 165.711 176.4 166.612C196.34 168.551 212.75 184.992 226.67 197.392C248.71 217.011 272.23 236.412 298.871 249.551C307.331 253.722 317.211 257.641 327.15 257.402C329.831 257.341 333.61 256.982 334.02 253.542C334.35 250.802 333.75 248.032 332.951 245.552C332.77 245.002 332.53 244.092 332.261 243.422C326.051 233.082 315.621 225.012 307.391 216.502C297.242 206.002 285.871 195.183 279.431 181.612C277.421 177.382 275.691 171.502 278.271 166.612C281.251 160.962 287.091 158.542 292.851 158.062C305.431 157.011 314.691 163.032 324.401 169.412C329.761 172.933 335.301 176.672 341.952 177.492C344.172 177.762 353.681 179.422 356.212 177.702C356.202 177.642 356.202 177.592 356.182 177.522C355.922 176.662 355.642 175.801 355.243 174.992C354.333 173.142 353.032 171.412 351.763 169.822C348.483 165.702 344.753 162.002 340.773 158.582C333.103 151.992 324.383 146.832 316.153 140.992C307.424 134.802 297.584 127.842 292.133 118.232C287.532 110.102 285.603 97.782 294.053 89.862C301.803 82.612 313.573 84.432 321.963 86.752C331.942 89.523 339.822 94.662 348.013 100.603C352.943 104.183 357.993 108.012 363.833 110.082C366.333 110.962 372.243 112.492 375.692 110.812C375.413 110.572 375.142 110.332 374.862 110.102C373.663 109.091 372.392 108.041 370.932 106.892C337.342 80.192 296.953 66.072 254.141 66.072C196.431 66.072 142.761 91.952 106.901 137.082C75.671 176.372 61.611 225.482 67.311 275.352C72.671 322.252 94.911 364.542 130.221 395.392C126.961 391.752 123.871 387.962 121.071 383.932C117.719 379.1 114.209 373.42 114.829 366.91Z" fill="#EA8470"/>
<path d="M383.91 118.19C383.889 118.169 383.87 118.15 383.849 118.129C370.889 128.659 354.639 120.19 343.969 112.629C333.099 104.94 322.179 96.329 307.619 96.419C301.719 96.47 297.978 99.85 299.799 106.249C301.659 112.829 306.629 117.819 311.519 122.049C327.749 136.06 348.049 145.02 361.319 162.459C365.87 168.43 371.58 178.56 363.569 185.73C355.189 193.23 338.259 190.27 330.049 186.52C323.949 183.749 318.519 179.94 312.929 176.33C308.229 173.32 302.829 169.66 296.859 169.51C293.99 169.431 290.859 169.58 288.719 170.67C288.549 170.75 288.469 170.79 288.419 170.82C288.419 170.87 288.419 170.93 288.409 171.009C288.518 170.289 288.648 172.4 288.598 172.459C288.888 173.56 289.268 174.64 289.728 175.68C290.568 177.549 292.228 180.24 293.659 182.299C297.929 188.449 302.858 194.1 307.898 199.56C317.749 210.23 328.558 219.98 338.008 231.03C346.718 241.19 350.688 264.469 331.548 268.42C321.508 270.5 310.938 267.49 302.048 264.08C288.248 258.79 275.428 250.96 263.558 242.44C243.108 227.78 224.838 210.71 205.267 195.02C197.577 188.839 189.317 182.36 179.657 179.36C173.927 177.57 161.947 177.9 162.657 187.57C163.337 196.74 170.227 205.38 176.097 211.45C188.217 224.01 201.967 234.69 215.957 245.02C227.637 253.65 238.897 263.03 250.987 271.059C261.088 277.759 271.548 283.95 281.248 291.2C289.768 297.58 298.857 304.84 303.477 314.9C307.707 324.16 307.748 336.46 297.627 343.5C273.577 360.21 244.446 346.59 225.176 333.83C212.956 325.75 201.246 316.6 190.116 307.08C181.806 299.99 173.976 292.3 165.136 285.85C160.846 282.72 156.346 279.51 151.186 277.88C148.356 276.981 142.536 276.06 139.766 278.26C138.736 279.06 140.446 282.981 141.396 284.691C143.566 288.63 146.166 292.291 148.966 295.751C157.636 306.531 169.016 315.401 180.326 325.011C194.896 337.381 209.916 349.951 221.766 365.161C229.206 374.671 238.856 390.231 227.026 402.541C215.216 414.821 199.276 408.461 187.976 401.981C172.866 393.331 159.666 382.02 145.056 372.651C140.526 369.741 135.506 366.581 130.736 366.741C129.626 366.791 127.216 367.151 126.816 367.31C126.516 367.43 126.296 367.54 126.116 367.64C126.126 368.34 126.136 368.12 126.496 369.151C128.566 375.001 133.196 380.281 137.296 384.961C142.566 390.971 148.226 396.591 153.926 402.161C159.196 407.301 168.886 415.02 173.386 423.77C174.796 424.451 176.216 425.121 177.636 425.75C201.726 436.48 227.386 441.93 253.886 441.93C311.596 441.93 365.257 416.05 401.117 370.93C462.02 294.31 454.62 185.66 383.91 118.19Z" fill="#C75839"/>
<path opacity="0.1" d="M382.4 404.69C372.32 413.32 361.46 420.849 349.969 427.219C321.019 443.28 288.129 451.929 253.889 451.929C225.969 451.929 198.949 446.19 173.569 434.889C165.829 431.429 158.269 427.459 151.099 423.079C144.139 418.839 137.329 414.079 130.859 408.939C125.579 404.749 120.559 400.319 115.789 395.689C83.149 363.968 62.609 322.308 57.369 276.479C52.829 236.729 60.199 197.439 78.319 162.729C83.309 153.168 89.129 143.949 95.729 135.168C94.439 139.939 93.299 144.778 92.329 149.689C91.539 153.649 90.849 157.659 90.279 161.699C90.279 161.709 90.279 161.709 90.279 161.72C88.799 172.07 88.039 182.65 88.039 193.4C88.039 283.36 141.309 360.879 218.029 396.11C221.519 397.719 225.059 399.24 228.649 400.66C254.129 410.8 281.91 416.37 311 416.37C326.51 416.37 341.65 414.79 356.27 411.76H356.281C365.2 409.93 373.92 407.55 382.4 404.69Z" fill="black"/>
<path d="M451.43 239.96C448.1 193.221 428.531 149.561 396.12 116.21C394.39 114.431 392.62 112.67 390.809 110.95C387.589 107.88 384.459 105.09 381.299 102.45C380.049 101.39 378.699 100.28 377.159 99.06C341.779 70.94 299.239 56.07 254.138 56.07C193.358 56.07 136.838 83.33 99.068 130.85C97.928 132.28 96.818 133.72 95.728 135.169C89.128 143.949 83.308 153.169 78.318 162.73C60.198 197.44 52.828 236.73 57.368 276.48C62.608 322.309 83.148 363.969 115.788 395.69C120.558 400.32 125.578 404.75 130.858 408.94C137.328 414.08 144.138 418.839 151.098 423.08C158.268 427.46 165.828 431.43 173.568 434.89C198.948 446.191 225.968 451.93 253.888 451.93C288.128 451.93 321.018 443.281 349.968 427.22C361.458 420.85 372.319 413.321 382.399 404.691C392.008 396.481 400.899 387.27 408.949 377.151C439.88 338.23 454.97 289.51 451.43 239.96ZM67.31 275.35C67.19 274.3 67.08 273.26 66.98 272.21C66.9 271.44 66.83 270.68 66.77 269.91C66.71 269.29 66.66 268.68 66.62 268.059C66.57 267.53 66.54 267.009 66.51 266.48C66.49 266.32 66.48 266.15 66.47 265.99C66.44 265.49 66.41 264.98 66.38 264.469C66.17 260.849 66.07 257.24 66.07 253.64C66.07 253.259 66.07 252.86 66.08 252.48C66.08 252.08 66.08 251.7 66.09 251.31C66.09 250.879 66.1 250.459 66.1 250.03C66.11 249.91 66.11 249.8 66.11 249.68C66.13 248.97 66.15 248.259 66.17 247.549C66.17 247.449 66.18 247.339 66.18 247.239C66.19 246.739 66.21 246.239 66.24 245.739C66.24 245.659 66.25 245.589 66.25 245.509C66.27 244.98 66.29 244.449 66.32 243.919C66.36 243.239 66.39 242.56 66.44 241.879C66.45 241.73 66.46 241.579 66.47 241.43C66.5 240.9 66.53 240.369 66.58 239.839C66.62 239.239 66.67 238.629 66.72 238.029C66.72 237.979 66.73 237.929 66.73 237.879C66.8 237.069 66.87 236.259 66.95 235.449C67.04 234.579 67.13 233.709 67.23 232.839C67.39 231.259 67.59 229.699 67.81 228.129C67.92 227.329 68.03 226.529 68.15 225.73C68.26 224.97 68.38 224.22 68.51 223.47C68.68 222.449 68.85 221.419 69.03 220.4L69.27 219.14C69.34 218.72 69.42 218.299 69.51 217.89C69.59 217.44 69.68 216.999 69.77 216.56C69.86 216.129 69.95 215.7 70.04 215.28C70.09 215.02 70.15 214.75 70.21 214.49C70.3 214.02 70.4 213.55 70.51 213.08C70.61 212.601 70.72 212.13 70.83 211.66C70.96 211.1 71.09 210.53 71.23 209.96C71.4 209.25 71.57 208.54 71.76 207.83C71.9 207.24 72.06 206.641 72.21 206.05C72.23 205.981 72.25 205.91 72.27 205.84V205.83C73.09 202.74 73.99 199.66 74.97 196.62C75.21 195.86 75.46 195.1 75.72 194.34C76.5 192 77.32 189.691 78.2 187.391C78.22 187.33 78.24 187.281 78.27 187.221C78.5 186.59 78.75 185.941 79.01 185.311C79.3 184.561 79.6 183.821 79.9 183.081C80.41 181.821 80.94 180.571 81.49 179.321C81.74 178.741 81.99 178.151 82.26 177.571C82.52 176.981 82.79 176.381 83.07 175.791C83.38 175.121 83.69 174.461 84 173.791C84.31 173.131 84.63 172.461 84.96 171.801C85.28 171.142 85.61 170.482 85.94 169.831C86.24 169.231 86.54 168.642 86.84 168.051C87.23 167.301 87.61 166.562 88.01 165.831C88.35 165.191 88.7 164.551 89.04 163.921C89.4 163.281 89.75 162.642 90.11 162.011C90.15 161.942 90.19 161.862 90.23 161.791C90.24 161.771 90.26 161.741 90.28 161.722C90.28 161.711 90.28 161.711 90.28 161.701L91.21 160.081C91.76 159.111 92.33 158.151 92.91 157.191C93.05 156.961 93.19 156.741 93.32 156.521C94.32 154.88 95.34 153.26 96.39 151.651C96.75 151.09 97.11 150.541 97.49 149.991C97.85 149.441 98.22 148.891 98.6 148.351C98.97 147.8 99.34 147.26 99.73 146.71C100.1 146.17 100.49 145.62 100.88 145.08C101.12 144.73 101.38 144.38 101.63 144.03C102.55 142.759 103.48 141.5 104.44 140.25C104.84 139.721 105.24 139.19 105.66 138.66C106.07 138.13 106.48 137.61 106.9 137.08C142.76 91.95 196.43 66.07 254.14 66.07C296.951 66.07 337.34 80.19 370.93 106.89C372.39 108.039 373.66 109.089 374.861 110.1C375.14 110.329 375.411 110.57 375.691 110.81C372.241 112.49 366.331 110.959 363.831 110.08C357.991 108.01 352.941 104.181 348.011 100.601C339.822 94.661 331.942 89.521 321.961 86.75C313.571 84.431 301.801 82.61 294.051 89.86C285.601 97.78 287.531 110.1 292.131 118.23C297.581 127.839 307.421 134.799 316.152 140.99C324.381 146.83 333.101 151.99 340.771 158.58C344.751 162 348.482 165.7 351.761 169.82C353.032 171.41 354.331 173.14 355.241 174.99C355.64 175.8 355.921 176.66 356.18 177.52C356.201 177.589 356.201 177.64 356.21 177.7C353.68 179.42 344.17 177.76 341.95 177.49C335.3 176.67 329.76 172.93 324.4 169.41C314.69 163.03 305.429 157.01 292.849 158.06C287.089 158.539 281.249 160.959 278.269 166.61C275.69 171.5 277.419 177.38 279.429 181.61C285.869 195.18 297.24 206 307.389 216.5C315.619 225.01 326.049 233.08 332.259 243.42C332.53 244.09 332.769 245 332.949 245.55C333.749 248.03 334.348 250.8 334.018 253.54C333.609 256.98 329.829 257.34 327.149 257.4C317.209 257.639 307.329 253.72 298.869 249.549C272.229 236.409 248.708 217.009 226.668 197.39C212.748 184.99 196.338 168.549 176.398 166.61C167.088 165.71 157.118 171.02 152.868 180.339C148.458 190.009 153.488 200.43 158.128 207.869C165.168 219.159 175.328 228.119 185.298 236.569C198.558 247.809 212.918 257.709 226.778 268.178C236.448 275.468 246.138 282.348 256.328 288.918C266.558 295.488 276.828 302.208 285.598 310.689C290.619 315.548 300.218 327.479 291.399 334.418C282.258 341.638 267.649 339.958 258.338 337.018C242.988 332.199 229.768 322.798 217.277 313.208C207.507 305.718 197.997 297.938 188.807 289.748C175.737 278.098 154.207 256.148 133.547 269.178C124.867 274.668 128.567 285.748 131.837 292.048C135.677 299.458 141.397 306.069 147.037 311.998C157.797 323.348 170.767 332.638 182.507 342.888C195.707 354.428 210.197 366.588 218.837 382.378C221.477 387.198 222.327 390.698 219.447 394.618C219.017 395.198 218.547 395.698 218.027 396.108C217.817 396.278 217.607 396.427 217.397 396.568C216.977 396.847 216.537 397.078 216.077 397.267C216.047 397.278 216.017 397.288 215.977 397.307C215.517 397.488 215.047 397.627 214.557 397.738C214.547 397.738 214.547 397.738 214.537 397.738C214.027 397.847 213.497 397.918 212.957 397.948C212.697 397.968 212.417 397.978 212.147 397.978C210.527 397.978 208.797 397.688 207.047 397.217C191.027 392.917 177.547 380.877 164.557 371.447C153.857 363.676 142.077 353.247 127.317 355.547C127.007 355.597 126.707 355.648 126.397 355.717C126.167 355.767 125.927 355.827 125.687 355.887C125.657 355.887 125.627 355.898 125.597 355.908C125.547 355.918 125.487 355.938 125.437 355.948C125.407 355.958 125.387 355.968 125.357 355.968C125.337 355.979 125.317 355.979 125.297 355.989C125.117 356.039 124.927 356.098 124.747 356.159C124.637 356.189 124.527 356.219 124.427 356.259C124.407 356.269 124.387 356.269 124.367 356.28C124.357 356.28 124.337 356.29 124.327 356.3C124.127 356.361 123.937 356.441 123.747 356.51C123.727 356.51 123.697 356.52 123.677 356.531C123.637 356.551 123.597 356.56 123.557 356.581C123.327 356.671 123.097 356.751 122.877 356.851C122.867 356.851 122.867 356.862 122.857 356.862C122.267 357.132 121.687 357.422 121.127 357.752C121.007 357.822 120.887 357.892 120.777 357.962C120.557 358.102 120.337 358.242 120.127 358.392C120.077 358.422 120.037 358.453 119.987 358.493C119.967 358.503 119.957 358.513 119.937 358.522C119.677 358.703 119.427 358.892 119.187 359.092C118.977 359.262 118.767 359.443 118.567 359.632C118.407 359.772 118.257 359.912 118.117 360.072C118.037 360.141 117.957 360.221 117.887 360.301C117.877 360.311 117.867 360.322 117.857 360.331C117.707 360.491 117.567 360.651 117.427 360.821C117.267 361.01 117.107 361.211 116.957 361.411C116.947 361.431 116.927 361.441 116.917 361.461C116.827 361.581 116.747 361.701 116.667 361.821C116.607 361.901 116.557 361.981 116.507 362.06C116.407 362.21 116.317 362.361 116.227 362.52C116.157 362.64 116.087 362.76 116.027 362.89C115.957 363.02 115.897 363.14 115.837 363.27C115.707 363.52 115.597 363.781 115.497 364.05C115.427 364.231 115.367 364.41 115.307 364.59C115.277 364.7 115.237 364.81 115.207 364.92C115.177 365.03 115.137 365.14 115.117 365.25C115.107 365.27 115.097 365.29 115.097 365.31C115.067 365.441 115.037 365.581 115.007 365.72C114.967 365.92 114.927 366.12 114.897 366.33C114.867 366.519 114.847 366.71 114.827 366.91C114.207 373.42 117.717 379.099 121.067 383.93C123.867 387.96 126.957 391.75 130.217 395.39C94.91 364.54 72.669 322.25 67.31 275.35ZM401.12 370.93C400.74 371.42 400.349 371.901 399.96 372.37C399.77 372.61 399.58 372.849 399.38 373.08C399.18 373.32 398.981 373.559 398.79 373.8C398.01 374.75 397.21 375.691 396.41 376.62C395.68 377.47 394.94 378.32 394.19 379.16C394.12 379.24 394.059 379.309 393.99 379.38C393.58 379.84 393.179 380.29 392.76 380.74C392.56 380.969 392.35 381.2 392.14 381.42C391.941 381.64 391.731 381.86 391.52 382.09C390.731 382.941 389.941 383.78 389.14 384.611C389 384.76 388.861 384.901 388.731 385.041C387.92 385.861 387.121 386.681 386.3 387.491C385.481 388.301 384.66 389.1 383.84 389.89C382.09 391.571 380.31 393.21 378.5 394.821C377.6 395.621 376.69 396.411 375.77 397.201C374.901 397.941 374.031 398.671 373.151 399.401C373.1 399.43 373.05 399.481 373.001 399.52C372.151 400.22 371.291 400.901 370.441 401.581C370.42 401.591 370.411 401.611 370.39 401.621C370.25 401.741 370.1 401.85 369.96 401.961C369.09 402.651 368.21 403.321 367.33 403.991C367.12 404.14 366.92 404.301 366.71 404.461C366.51 404.621 366.3 404.771 366.09 404.921C365.68 405.232 365.26 405.541 364.84 405.851C364.68 405.971 364.53 406.081 364.361 406.202C364.27 406.271 364.18 406.332 364.081 406.402C363.231 407.011 362.381 407.631 361.511 408.232C361.041 408.561 360.561 408.891 360.081 409.221C359.571 409.572 359.06 409.921 358.551 410.261C357.801 410.771 357.041 411.271 356.281 411.761H356.27C356.17 411.831 356.06 411.902 355.96 411.961C355.31 412.401 354.65 412.811 353.99 413.221C353.95 413.251 353.91 413.282 353.87 413.301C353.17 413.741 352.47 414.171 351.769 414.601C350.28 415.511 348.78 416.402 347.259 417.261C346.719 417.581 346.169 417.891 345.619 418.192C345.009 418.542 344.389 418.881 343.768 419.212C343.058 419.602 342.338 419.992 341.619 420.362C341.518 420.422 341.419 420.471 341.319 420.521C340.619 420.891 339.909 421.251 339.199 421.612C338.609 421.922 338.009 422.221 337.409 422.511C337.009 422.711 336.609 422.911 336.209 423.101C334.469 423.952 332.719 424.771 330.959 425.551C330.499 425.761 330.029 425.971 329.559 426.171C329.16 426.341 328.769 426.521 328.37 426.692C327.97 426.862 327.57 427.042 327.17 427.202C327.11 427.232 327.05 427.252 326.99 427.282C325.91 427.732 324.83 428.181 323.74 428.612C322.7 429.021 321.65 429.431 320.59 429.832C320.46 429.882 320.34 429.932 320.21 429.972C319.21 430.352 318.21 430.712 317.21 431.062C316.84 431.203 316.47 431.333 316.1 431.462C315.371 431.712 314.64 431.962 313.901 432.212C313.76 432.262 313.63 432.302 313.491 432.352C313.31 432.413 313.131 432.472 312.951 432.522C312.501 432.672 312.041 432.823 311.581 432.972C311.131 433.122 310.671 433.262 310.211 433.403C309.671 433.573 309.131 433.743 308.581 433.903C308.041 434.062 307.501 434.222 306.951 434.382C306.89 434.403 306.831 434.422 306.77 434.443H306.76C306.64 434.483 306.51 434.512 306.39 434.552C305.46 434.823 304.52 435.082 303.58 435.332C302.519 435.622 301.45 435.902 300.38 436.172C299.901 436.302 299.42 436.422 298.941 436.532C298.47 436.652 297.991 436.761 297.51 436.872C297.27 436.932 297.04 436.992 296.81 437.042C294.93 437.472 293.04 437.882 291.151 438.262C291.111 438.272 291.081 438.272 291.041 438.283C290.551 438.383 290.061 438.472 289.571 438.562C288.951 438.693 288.341 438.802 287.72 438.913C287.7 438.913 287.67 438.923 287.651 438.923C287.441 438.963 287.231 439.003 287.01 439.033C286.2 439.182 285.38 439.323 284.55 439.453C284.33 439.493 284.1 439.533 283.87 439.562C283.36 439.642 282.849 439.722 282.33 439.802C281.82 439.882 281.3 439.962 280.79 440.032C280.59 440.061 280.39 440.092 280.19 440.112C279.5 440.212 278.799 440.301 278.099 440.391C277.839 440.431 277.579 440.461 277.32 440.492C276.42 440.601 275.509 440.712 274.599 440.811C274.269 440.841 273.95 440.881 273.62 440.912C272.74 441.002 271.86 441.092 270.97 441.162C270.88 441.182 270.781 441.182 270.68 441.192C270.401 441.221 270.12 441.242 269.84 441.261C269.77 441.271 269.7 441.271 269.63 441.282C269.04 441.332 268.45 441.382 267.85 441.422C267.71 441.432 267.571 441.443 267.43 441.452C267.401 441.452 267.37 441.462 267.34 441.462C266.27 441.532 265.2 441.602 264.12 441.662C264.03 441.662 263.94 441.672 263.84 441.672C263.26 441.702 262.68 441.733 262.09 441.752C261.82 441.772 261.55 441.772 261.28 441.782C260.769 441.811 260.259 441.832 259.74 441.842C259.349 441.852 258.96 441.863 258.57 441.872C258.009 441.892 257.45 441.902 256.879 441.902C255.889 441.922 254.889 441.931 253.889 441.931C227.389 441.931 201.729 436.482 177.639 425.751C176.219 425.121 174.799 424.451 173.389 423.771C168.889 415.021 159.199 407.301 153.929 402.162C148.229 396.592 142.569 390.972 137.299 384.962C133.199 380.282 128.569 375.002 126.499 369.152C126.139 368.122 126.129 368.341 126.119 367.641C126.299 367.541 126.519 367.431 126.819 367.311C127.219 367.152 129.629 366.791 130.739 366.742C130.999 366.732 131.269 366.732 131.529 366.752C131.689 366.762 131.849 366.772 132.019 366.782C132.179 366.792 132.349 366.811 132.509 366.832C132.519 366.832 132.539 366.832 132.549 366.842C132.699 366.852 132.839 366.872 132.989 366.903C133.499 366.983 134.009 367.102 134.519 367.243C134.619 367.272 134.729 367.303 134.829 367.333C134.839 367.333 134.839 367.333 134.849 367.333C134.909 367.343 134.969 367.363 135.029 367.383C135.379 367.493 135.739 367.613 136.099 367.753C136.299 367.823 136.509 367.903 136.719 367.993C137.009 368.102 137.299 368.233 137.589 368.363C137.849 368.472 138.099 368.592 138.359 368.722C138.879 368.972 139.409 369.252 139.929 369.533C140.219 369.693 140.509 369.852 140.799 370.022C141.379 370.352 141.959 370.703 142.529 371.052C142.819 371.222 143.099 371.403 143.379 371.582C143.949 371.932 144.509 372.292 145.059 372.652C159.669 382.021 172.869 393.332 187.979 401.982C199.279 408.461 215.219 414.822 227.029 402.542C227.269 402.292 227.509 402.032 227.729 401.771C228.059 401.402 228.369 401.032 228.649 400.662C228.659 400.641 228.679 400.632 228.689 400.612C228.849 400.402 229.009 400.192 229.159 399.971C229.739 399.152 230.239 398.322 230.659 397.482C230.759 397.292 230.859 397.091 230.949 396.891C231.549 395.581 231.969 394.242 232.229 392.902C232.279 392.672 232.319 392.452 232.349 392.221C232.399 391.911 232.449 391.581 232.479 391.261C232.489 391.121 232.509 390.982 232.519 390.831C232.539 390.601 232.549 390.371 232.559 390.131C232.569 389.851 232.579 389.571 232.579 389.291C232.589 380.391 226.699 371.451 221.769 365.161C209.919 349.951 194.899 337.381 180.329 325.011C169.019 315.402 157.639 306.532 148.969 295.751C146.169 292.291 143.569 288.631 141.399 284.691C140.449 282.981 138.739 279.06 139.769 278.26C142.539 276.06 148.359 276.981 151.189 277.88C156.349 279.51 160.849 282.72 165.139 285.85C173.979 292.3 181.809 299.991 190.119 307.08C201.249 316.6 212.959 325.75 225.179 333.83C244.449 346.59 273.579 360.21 297.629 343.5C307.749 336.46 307.709 324.16 303.48 314.9C298.86 304.839 289.769 297.58 281.25 291.2C271.55 283.95 261.09 277.76 250.99 271.059C238.9 263.03 227.64 253.65 215.96 245.02C201.97 234.69 188.22 224.009 176.1 211.45C170.23 205.38 163.34 196.74 162.66 187.57C161.95 177.9 173.93 177.57 179.66 179.36C189.32 182.36 197.58 188.839 205.27 195.02C224.84 210.709 243.11 227.78 263.56 242.44C275.43 250.96 288.25 258.79 302.05 264.08C310.941 267.49 321.51 270.5 331.55 268.42C350.691 264.47 346.72 241.191 338.01 231.03C328.56 219.98 317.75 210.23 307.901 199.56C302.861 194.1 297.93 188.45 293.661 182.299C292.231 180.239 290.571 177.549 289.731 175.68C289.27 174.64 288.89 173.56 288.6 172.459C288.651 172.399 288.52 170.289 288.411 171.009C288.421 170.93 288.421 170.869 288.421 170.82C288.471 170.79 288.551 170.75 288.721 170.67C290.862 169.58 293.992 169.431 296.862 169.51C302.832 169.66 308.232 173.321 312.931 176.33C318.521 179.94 323.952 183.75 330.051 186.52C338.261 190.27 355.192 193.23 363.572 185.73C371.582 178.56 365.872 168.43 361.322 162.459C348.051 145.02 327.752 136.06 311.521 122.049C306.631 117.82 301.662 112.829 299.801 106.249C297.982 99.85 301.721 96.47 307.621 96.419C322.181 96.329 333.1 104.94 343.971 112.629C354.641 120.19 370.891 128.659 383.851 118.129C383.872 118.15 383.891 118.169 383.912 118.19C454.62 185.66 462.02 294.31 401.12 370.93Z" fill="#8F3B29"/>
</svg>
