<svg width="512" height="512" viewBox="0 0 512 512" fill="none" xmlns="http://www.w3.org/2000/svg">
<path opacity="0.6" d="M444.239 256.001C444.239 237.512 477.738 214.87 473.183 197.816C468.465 180.17 428.001 177.327 419.062 161.879C409.993 146.21 427.667 109.766 414.953 97.0495C402.235 84.3314 365.791 102.004 350.121 92.9394C334.673 84.0012 331.83 43.534 314.186 38.8172C297.133 34.2604 274.491 67.7592 256.001 67.7592C237.512 67.7592 214.87 34.2604 197.819 38.8172C180.17 43.5352 177.33 84.0012 161.88 92.9394C146.212 102.008 109.77 84.3314 97.0522 97.0495C84.3354 109.766 102.006 146.21 92.9409 161.88C84.0052 177.326 43.5355 180.169 38.8187 197.815C34.2644 214.868 67.7633 237.51 67.7633 256C67.7633 274.486 34.2644 297.129 38.8187 314.182C43.5367 331.827 84.0052 334.67 92.9409 350.118C102.01 365.789 84.3354 402.231 97.0522 414.948C109.77 427.666 146.212 409.993 161.884 419.058C177.33 427.996 180.17 468.463 197.819 473.18C214.87 477.737 237.513 444.235 256.001 444.235C274.49 444.235 297.133 477.737 314.186 473.18C331.83 468.462 334.673 427.996 350.124 419.058C365.792 409.989 402.236 427.666 414.953 414.948C427.669 402.23 409.998 365.789 419.062 350.116C428 334.67 468.465 331.827 473.183 314.182C477.738 297.13 444.239 274.487 444.239 256.001Z" fill="#FFBE55"/>
<path d="M401.32 256.001C401.32 329.399 346.9 390.089 276.201 399.922C269.51 400.856 262.761 401.322 256.005 401.317C175.746 401.317 110.674 336.256 110.674 256.003C110.674 175.741 175.745 110.683 256.005 110.683C262.858 110.683 269.602 111.154 276.201 112.077C346.902 121.907 401.32 182.598 401.32 256.001Z" fill="#FFBE55"/>
</svg>
